<?xml version="1.0" encoding="utf-8"?>
<!-- Generator: Adobe Illustrator 23.0.0, SVG Export Plug-In . SVG Version: 6.00 Build 0)  -->
<svg version="1.1" id="Layer_1" xmlns="http://www.w3.org/2000/svg" xmlns:xlink="http://www.w3.org/1999/xlink" x="0px" y="0px"
	 viewBox="0 0 50 50" style="enable-background:new 0 0 50 50;" xml:space="preserve">
<style type="text/css">
	.st0{fill:url(#SVGID_1_);}
	.st1{fill:#83C451;}
	.st2{fill:#4EB748;}
	.st3{fill:#3C9946;}
	.st4{opacity:0.33;fill:#FFFFFF;}
	.st5{fill:#3A4956;}
	.st6{fill:url(#SVGID_2_);}
	.st7{fill:#44BFD8;}
	.st8{fill:#187FBE;}
	.st9{fill:#084E8C;}
	.st10{fill:url(#SVGID_3_);}
	.st11{fill:#D975AF;}
	.st12{fill:#AC55A1;}
	.st13{fill:#8A2A8C;}
	.st14{fill:url(#SVGID_4_);}
	.st15{fill:#F15858;}
	.st16{fill:#EB2227;}
	.st17{fill:#CC2029;}
	.st18{fill:url(#SVGID_5_);}
	.st19{fill:#FCB456;}
	.st20{fill:#F47823;}
	.st21{fill:#CE6429;}
	.st22{fill:url(#SVGID_6_);}
	.st23{fill:#F9F183;}
	.st24{fill:#FCD232;}
	.st25{fill:#E4B423;}
	.st26{opacity:0.21;fill:#3A4956;}
	.st27{fill:url(#SVGID_7_);}
	.st28{fill:url(#SVGID_8_);}
</style>
<g>
	<g>
		
			<linearGradient id="SVGID_1_" gradientUnits="userSpaceOnUse" x1="12.109" y1="58.1117" x2="36.3301" y2="33.8907" gradientTransform="matrix(0.9932 0.1165 -0.1165 0.9932 10.0668 -8.8183)">
			<stop  offset="0" style="stop-color:#CDCAC0"/>
			<stop  offset="0.2449" style="stop-color:#BFB9A2"/>
			<stop  offset="0.5" style="stop-color:#CDCAC0"/>
			<stop  offset="0.75" style="stop-color:#BFB9A2"/>
			<stop  offset="1" style="stop-color:#CDCAC0"/>
		</linearGradient>
		<path class="st0" d="M46.5,47.8c-0.1,0.5-0.5,0.9-1,0.9L10.6,44c-0.5-0.1-0.8-0.6-0.8-1.1L11,31.6c0.1-0.5,0.5-0.9,1-0.9l34.9,4.6
			c0.5,0.1,0.8,0.6,0.8,1.1L46.5,47.8z"/>
		<polygon class="st1" points="45.2,47.4 37.2,46.3 38.3,35.4 46.3,36.5 		"/>
		<polygon class="st2" points="36.2,46.2 28.2,45.1 29.3,34.2 37.3,35.3 		"/>
		<polygon class="st3" points="27.2,45 19.2,43.9 20.3,33 28.3,34.1 		"/>
		<path class="st4" d="M45.4,48.6L10.6,44c-0.5-0.1-0.8-0.6-0.8-1.1L11,32c0-0.3,0.2-0.6,0.4-0.7c0.2-0.2,0.5-0.2,0.8,0L45.4,48.6z"
			/>
	</g>
	<path class="st5" d="M13.3,30.9l-2.2,0.4c0,0.1-0.1,0.2-0.1,0.3l-0.8,7.7l0.7,4.6c0,0,0,0.1,0,0.1l2.6,0.4l33-6.5
		c0.5-0.1,0.8-0.6,0.7-1.1l-0.2-1.3c-0.1,0-0.1-0.1-0.2-0.1L13.3,30.9z"/>
	<g>
		
			<linearGradient id="SVGID_2_" gradientUnits="userSpaceOnUse" x1="64.9728" y1="36.9871" x2="90.3468" y2="11.6132" gradientTransform="matrix(0.9731 -0.2302 0.2302 0.9731 -53.7163 27.8778)">
			<stop  offset="0" style="stop-color:#CDCAC0"/>
			<stop  offset="0.2449" style="stop-color:#BFB9A2"/>
			<stop  offset="0.5" style="stop-color:#CDCAC0"/>
			<stop  offset="0.75" style="stop-color:#BFB9A2"/>
			<stop  offset="1" style="stop-color:#CDCAC0"/>
		</linearGradient>
		<path class="st6" d="M46.6,34.4c0.1,0.5-0.2,1.1-0.6,1.2l-34.2,9.2c-0.5,0.1-0.9-0.2-1.1-0.7l-2.3-11c-0.1-0.5,0.2-1.1,0.6-1.2
			l34.2-9.2c0.5-0.1,0.9,0.2,1.1,0.7L46.6,34.4z"/>
		<polygon class="st7" points="45.2,34.5 37.3,36.6 35.1,26 43,23.8 		"/>
		<polygon class="st8" points="36.4,36.9 28.5,39 26.3,28.3 34.2,26.2 		"/>
		<polygon class="st9" points="27.6,39.2 19.7,41.4 17.5,30.7 25.3,28.6 		"/>
		<path class="st4" d="M45.9,35.5l-34.2,9.2c-0.5,0.1-0.9-0.2-1.1-0.7L8.4,33.3c-0.1-0.3,0-0.6,0.2-0.9c0.2-0.2,0.5-0.4,0.7-0.3
			L45.9,35.5z"/>
	</g>
	<path class="st5" d="M10.3,31.4l-1.9,1.2c0,0.1,0,0.2,0,0.3l1.6,7.6l2,4c0,0,0.1,0.1,0.1,0.1l2.6-0.7l29-18.9
		c0.4-0.3,0.6-0.9,0.3-1.4l-0.6-1.2c-0.1,0-0.1,0-0.2,0L10.3,31.4z"/>
	<g>
		
			<linearGradient id="SVGID_3_" gradientUnits="userSpaceOnUse" x1="122.2353" y1="34.8455" x2="148.7782" y2="8.3026" gradientTransform="matrix(0.8357 -0.5491 0.5491 0.8357 -100.6987 84.8539)">
			<stop  offset="0" style="stop-color:#CDCAC0"/>
			<stop  offset="0.2449" style="stop-color:#BFB9A2"/>
			<stop  offset="0.5" style="stop-color:#CDCAC0"/>
			<stop  offset="0.75" style="stop-color:#BFB9A2"/>
			<stop  offset="1" style="stop-color:#CDCAC0"/>
		</linearGradient>
		<path class="st10" d="M42.6,21.7c0.3,0.5,0.2,1.1-0.3,1.4L12.9,45c-0.4,0.3-0.9,0.2-1.2-0.3l-5.5-9.5c-0.3-0.5-0.2-1.1,0.3-1.4
			L35.9,12c0.4-0.3,0.9-0.2,1.2,0.3L42.6,21.7z"/>
		<polygon class="st11" points="41.3,22.4 34.6,27.4 29.3,18.3 36,13.2 		"/>
		<polygon class="st12" points="33.8,28.1 27,33.1 21.7,23.9 28.5,18.9 		"/>
		<polygon class="st13" points="26.2,33.7 19.4,38.7 14.1,29.6 20.9,24.5 		"/>
		<path class="st4" d="M42.4,23L12.9,45c-0.2,0.1-0.4,0.2-0.7,0.1c-0.2-0.1-0.4-0.2-0.6-0.4l-5.3-9.2c-0.2-0.3-0.2-0.6-0.1-0.9
			s0.3-0.5,0.6-0.6L42.4,23z"/>
	</g>
	<path class="st5" d="M7.6,33L6.1,35c0,0.1,0,0.2,0.1,0.3l3.8,6.5l3.1,3c0,0,0.1,0,0.1,0.1l2.2-1.7l21.6-29c0.3-0.4,0.3-1-0.1-1.4
		L36,11.9c-0.1,0-0.1,0-0.2,0.1L7.6,33z"/>
	<g>
		
			<linearGradient id="SVGID_4_" gradientUnits="userSpaceOnUse" x1="175.7396" y1="52.6219" x2="202.9202" y2="25.4414" gradientTransform="matrix(0.5975 -0.8019 0.8019 0.5975 -124.466 153.3065)">
			<stop  offset="0" style="stop-color:#CDCAC0"/>
			<stop  offset="0.2449" style="stop-color:#BFB9A2"/>
			<stop  offset="0.5" style="stop-color:#CDCAC0"/>
			<stop  offset="0.75" style="stop-color:#BFB9A2"/>
			<stop  offset="1" style="stop-color:#CDCAC0"/>
		</linearGradient>
		<path class="st14" d="M35,11.4c0.4,0.3,0.5,0.9,0.2,1.4l-21,32c-0.3,0.4-0.8,0.5-1.2,0.2l-8-6.8c-0.4-0.3-0.5-0.9-0.2-1.4l21-32
			C26,4.4,26.6,4.3,27,4.6L35,11.4z"/>
		<polygon class="st15" points="34.1,12.5 29.2,19.9 21.5,13.3 26.3,6 		"/>
		<polygon class="st16" points="28.6,20.8 23.8,28.1 16.1,21.6 20.9,14.2 		"/>
		<polygon class="st17" points="23.2,29 18.4,36.4 10.6,29.8 15.5,22.5 		"/>
		<path class="st4" d="M35.2,12.8l-21,32c-0.3,0.4-0.8,0.5-1.2,0.2l-7.8-6.6c-0.2-0.2-0.4-0.5-0.4-0.8c0-0.3,0.1-0.6,0.4-0.8
			C10.5,32.5,35.4,12.5,35.2,12.8z"/>
	</g>
	<path class="st5" d="M5.5,35.6L4.8,38c0,0.1,0.1,0.2,0.2,0.2l5.5,4.6l3.8,1.6c0,0,0.1,0,0.1,0L16,42L27.5,6.4
		c0.2-0.5-0.1-1.1-0.5-1.3l-1.1-0.5c0,0-0.1,0.1-0.1,0.1L5.5,35.6z"/>
	<g>
		
			<linearGradient id="SVGID_5_" gradientUnits="userSpaceOnUse" x1="221.1501" y1="88.0327" x2="248.1434" y2="61.0395" gradientTransform="matrix(0.2872 -0.9579 0.9579 0.2872 -124.1032 226.4341)">
			<stop  offset="0" style="stop-color:#CDCAC0"/>
			<stop  offset="0.2449" style="stop-color:#BFB9A2"/>
			<stop  offset="0.5" style="stop-color:#CDCAC0"/>
			<stop  offset="0.75" style="stop-color:#BFB9A2"/>
			<stop  offset="1" style="stop-color:#CDCAC0"/>
		</linearGradient>
		<path class="st18" d="M24.8,4.7c0.5,0.2,0.7,0.7,0.6,1.2L15.3,44.1c-0.1,0.5-0.6,0.8-1.1,0.7l-9.6-3.3c-0.5-0.2-0.7-0.7-0.6-1.2
			L14.1,2.1c0.1-0.5,0.6-0.8,1.1-0.7L24.8,4.7z"/>
		<polygon class="st19" points="24.2,6.1 21.9,14.8 12.6,11.7 15,2.9 		"/>
		<polygon class="st20" points="21.6,15.9 19.3,24.7 10,21.5 12.4,12.8 		"/>
		<polygon class="st21" points="19,25.8 16.7,34.5 7.4,31.4 9.8,22.6 		"/>
		<path class="st4" d="M25.4,5.9c0,0-1.2,4.7-1.4,5.2l-8.7,33c-0.1,0.5-0.6,0.8-1.1,0.7l-9.3-3.2c-0.3-0.1-0.5-0.3-0.6-0.6
			c-0.1-0.3-0.1-0.6,0.1-0.9L25.4,5.9z"/>
	</g>
	<path class="st5" d="M4.4,38.8l0,2.5c0.1,0.1,0.1,0.1,0.2,0.1l6.6,2.2l4.1,0c0,0,0.1,0,0.1,0l0.8-2.9l0.1-37.9c0-0.5-0.4-1-0.9-1
		l-1.2,0c0,0.1-0.1,0.1-0.1,0.2L4.4,38.8z"/>
	<g>
		
			<linearGradient id="SVGID_6_" gradientUnits="userSpaceOnUse" x1="252.6758" y1="136.71" x2="278.7425" y2="110.6433" gradientTransform="matrix(-5.770000e-02 -0.9983 0.9983 -5.770000e-02 -98.9263 295.8846)">
			<stop  offset="0" style="stop-color:#EDEAE1"/>
			<stop  offset="0.2449" style="stop-color:#E0D9C2"/>
			<stop  offset="0.5" style="stop-color:#EDEAE1"/>
			<stop  offset="0.75" style="stop-color:#E0D9C2"/>
			<stop  offset="1" style="stop-color:#EDEAE1"/>
		</linearGradient>
		<path class="st22" d="M13.1,2.3c0.5,0,0.9,0.4,0.9,0.9l2,39.8c0,0.5-0.3,1-0.8,1l-10,0.7c-0.5,0-0.9-0.4-0.9-0.9L2.3,4
			c0-0.5,0.3-1,0.8-1L13.1,2.3z"/>
		<polygon class="st23" points="13,3.8 13.5,13 3.9,13.6 3.4,4.4 		"/>
		<polygon class="st24" points="13.6,14.1 14,23.2 4.4,23.9 3.9,14.7 		"/>
		<polygon class="st25" points="14.1,24.3 14.6,33.5 4.9,34.1 4.4,25 		"/>
		<path class="st4" d="M14,3.1c0,0,0.3,5,0.3,5.5L16.1,43c0,0.5-0.3,1-0.8,1l-9.7,0.6c-0.3,0-0.5-0.1-0.7-0.4
			c-0.2-0.2-0.2-0.6-0.2-0.9L14,3.1z"/>
	</g>
	<path class="st26" d="M15.1,41.2c-0.1,1.3-1.2,2.2-2.3,2.1c-1.1-0.2-2-1.3-1.8-2.6c0.1-1.3,1.2-2.2,2.3-2.1
		C14.4,38.7,15.2,39.9,15.1,41.2z"/>
	
		<linearGradient id="SVGID_7_" gradientUnits="userSpaceOnUse" x1="6.7965" y1="49.0344" x2="10.5987" y2="49.0344" gradientTransform="matrix(0.9932 0.1165 -0.1165 0.9932 10.0668 -8.8183)">
		<stop  offset="0" style="stop-color:#E1E4E7"/>
		<stop  offset="0.6499" style="stop-color:#7D828C"/>
		<stop  offset="1" style="stop-color:#535E69"/>
	</linearGradient>
	<path class="st27" d="M14.9,41.1c-0.1,1.2-1.1,2-2.1,1.9c-1-0.1-1.8-1.2-1.7-2.4c0.1-1.2,1.1-2,2.1-1.9C14.3,38.9,15,40,14.9,41.1z
		 M13.1,39.5c-0.7-0.1-1.3,0.5-1.4,1.2c-0.1,0.8,0.4,1.5,1.1,1.6c0.7,0.1,1.3-0.5,1.4-1.2C14.3,40.3,13.8,39.6,13.1,39.5z"/>
	
		<linearGradient id="SVGID_8_" gradientUnits="userSpaceOnUse" x1="7.6231" y1="49.0344" x2="9.7721" y2="49.0344" gradientTransform="matrix(0.9932 0.1165 -0.1165 0.9932 10.0668 -8.8183)">
		<stop  offset="0" style="stop-color:#E0D9C2"/>
		<stop  offset="1" style="stop-color:#EDEAE1"/>
	</linearGradient>
	<ellipse class="st28" cx="13" cy="40.9" rx="1.1" ry="1.2"/>
</g>
</svg>
