<?xml version="1.0" encoding="utf-8"?>
<!-- Generator: Adobe Illustrator 23.0.0, SVG Export Plug-In . SVG Version: 6.00 Build 0)  -->
<svg version="1.1" id="Layer_1" xmlns="http://www.w3.org/2000/svg" xmlns:xlink="http://www.w3.org/1999/xlink" x="0px" y="0px"
	 viewBox="0 0 119.1 40" style="enable-background:new 0 0 119.1 40;" xml:space="preserve">
<style type="text/css">
	.st0{clip-path:url(#SVGID_2_);fill:url(#SVGID_3_);}
	.st1{clip-path:url(#SVGID_5_);fill:url(#SVGID_6_);}
</style>
<g>
	<g>
		<defs>
			<path id="SVGID_1_" d="M29.6,7.9H32c2.4,0,4.2,0,5.5-0.1v0.7c-0.8,0-1.4,0.1-1.7,0.3c-0.3,0.1-0.6,0.4-0.7,0.8
				c-0.1,0.4-0.2,1-0.2,1.9v17c0,0.9,0.1,1.5,0.2,1.9c0.1,0.4,0.4,0.7,0.7,0.8c0.4,0.1,0.9,0.2,1.7,0.3v0.7C36.2,32,34.4,32,32,32
				c-2.5,0-4.3,0-5.5,0.1v-0.7c0.8,0,1.4-0.1,1.8-0.3c0.4-0.1,0.6-0.4,0.8-0.8c0.1-0.4,0.2-1,0.2-1.9v-18L21,32.1h-0.6L11,10v16.5
				c0,1.4,0.1,2.3,0.2,3c0.1,0.6,0.4,1.1,0.9,1.4c0.5,0.3,1.2,0.5,2.3,0.6v0.7C13.5,32,12.2,32,10.6,32c-1.3,0-2.3,0-3,0.1v-0.7
				c0.8-0.1,1.3-0.3,1.7-0.6c0.4-0.3,0.6-0.7,0.7-1.3c0.1-0.6,0.2-1.5,0.2-2.6V11.4c0-0.9-0.1-1.5-0.2-1.9C9.9,9.1,9.6,8.9,9.3,8.7
				C8.9,8.6,8.4,8.5,7.6,8.4V7.8c0.7,0.1,1.8,0.1,3,0.1c2.1,0,4,0,5.5-0.1l7,16.7L29.6,7.9z M44.7,5l68.2,0v30H44.3L44.7,5z M0,39.9
				h119.1V0.1H0V39.9z"/>
		</defs>
		<clipPath id="SVGID_2_">
			<use xlink:href="#SVGID_1_"  style="overflow:visible;"/>
		</clipPath>
		
			<linearGradient id="SVGID_3_" gradientUnits="userSpaceOnUse" x1="-1619.3607" y1="812.1465" x2="-1619.3247" y2="812.1465" gradientTransform="matrix(2323.8335 787.2661 -2323.8335 787.2661 5650436 635498.125)">
			<stop  offset="0" style="stop-color:#B3822D"/>
			<stop  offset="0.4917" style="stop-color:#F1E27F"/>
			<stop  offset="0.9792" style="stop-color:#B3822D"/>
			<stop  offset="1" style="stop-color:#B3822D"/>
		</linearGradient>
		<polygon class="st0" points="-58.7,20 59.6,60.1 177.9,20 59.6,-20.1 		"/>
	</g>
	<g>
		<defs>
			<path id="SVGID_4_" d="M53.8,8.1c-2.5,0-4.3,0-5.5-0.1v0.7c0.8,0,1.3,0.1,1.7,0.3c0.4,0.1,0.6,0.4,0.7,0.8c0.1,0.4,0.2,1,0.2,1.9
				v17c0,0.9-0.1,1.5-0.2,1.9c-0.1,0.4-0.4,0.7-0.7,0.8c-0.4,0.1-0.9,0.2-1.7,0.3v0.7c1.2-0.1,3-0.1,5.5-0.1c2.3,0,4,0,5.3,0.1v-0.7
				c-0.8,0-1.4-0.1-1.7-0.3c-0.3-0.1-0.6-0.4-0.7-0.8c-0.1-0.4-0.2-1-0.2-1.9v-17c0-0.9,0.1-1.5,0.2-1.9c0.1-0.4,0.4-0.7,0.7-0.8
				c0.3-0.1,0.9-0.2,1.7-0.3V8C57.8,8,56,8.1,53.8,8.1 M93.6,13.1l3.4,9.3H90L93.6,13.1z M96.1,7.9c-0.6,0-1,0-1.2,0L86.9,28
				c-0.9,2.2-1.9,3.4-3,3.6v0.7c0.7-0.1,1.6-0.1,2.6-0.1c1.3,0,2.7,0,4.3,0.1v-0.7c-1,0-1.8-0.2-2.3-0.6c-0.5-0.3-0.8-0.9-0.8-1.8
				c0-0.9,0.3-2.2,1-3.8l0.9-2.4h7.6l2.1,5.6c0.3,0.7,0.4,1.2,0.4,1.6c0,0.4-0.2,0.7-0.6,0.9c-0.4,0.2-1,0.3-1.9,0.3v0.7
				c1.2-0.1,2.9-0.1,5.3-0.1c2.1,0,3.9,0,5.3,0.1v-0.7c-0.4,0-0.8-0.2-1.2-0.5c-0.4-0.3-0.7-0.9-1-1.6L97.3,7.9
				C97,7.9,96.6,7.9,96.1,7.9 M67.3,9.1c-1.9,1.1-3.3,2.6-4.4,4.5c-1,1.9-1.6,4.2-1.6,6.7c0,2.6,0.5,4.8,1.5,6.7
				c1,1.9,2.5,3.3,4.3,4.3c1.8,1,4,1.5,6.5,1.5c1.3,0,2.5-0.2,3.4-0.6c1-0.4,2-0.9,3-1.7c0.3-0.2,0.5-0.3,0.7-0.3
				c0.2,0,0.4,0.2,0.5,0.5c0.1,0.3,0.2,0.8,0.3,1.6h0.8c-0.1-1.6-0.1-4.5-0.1-8.7h-0.8c-0.2,1.9-0.4,3.3-0.8,4.2
				c-0.3,1-0.9,1.8-1.8,2.4c-0.5,0.5-1.2,1-2,1.3c-0.8,0.3-1.6,0.4-2.4,0.4c-2.3,0-4.1-1.1-5.3-3.4c-1.2-2.2-1.8-5-1.8-8.4
				c0-3.4,0.6-6.2,1.7-8.4c1.1-2.3,2.9-3.4,5.2-3.4c0.8,0,1.6,0.1,2.4,0.4c0.8,0.3,1.4,0.7,2,1.3c0.8,0.7,1.4,1.4,1.8,2.3
				c0.3,0.9,0.6,2.2,0.8,3.9h0.8c0-4,0-6.8,0.1-8.3h-0.8c-0.1,1.4-0.4,2.1-0.9,2.1c-0.2,0-0.4-0.1-0.7-0.3c-0.9-0.7-1.9-1.3-2.9-1.6
				c-1-0.4-2.2-0.6-3.6-0.6C71.3,7.5,69.2,8,67.3,9.1"/>
		</defs>
		<clipPath id="SVGID_5_">
			<use xlink:href="#SVGID_4_"  style="overflow:visible;"/>
		</clipPath>
		
			<linearGradient id="SVGID_6_" gradientUnits="userSpaceOnUse" x1="-1619.8021" y1="812.3315" x2="-1619.7662" y2="812.3315" gradientTransform="matrix(1657.5426 0 0 712.163 2684939.25 -578492.375)">
			<stop  offset="0" style="stop-color:#B3822D"/>
			<stop  offset="2.083330e-02" style="stop-color:#B3822D"/>
			<stop  offset="0.4875" style="stop-color:#F1E27F"/>
			<stop  offset="0.9792" style="stop-color:#B3822D"/>
			<stop  offset="1" style="stop-color:#B3822D"/>
		</linearGradient>
		<rect x="48.3" y="7.5" class="st1" width="59.7" height="25.3"/>
	</g>
</g>
</svg>
