<?xml version="1.0" encoding="utf-8"?>
<!-- Generator: Adobe Illustrator 23.0.0, SVG Export Plug-In . SVG Version: 6.00 Build 0)  -->
<svg version="1.1" id="Layer_1" xmlns="http://www.w3.org/2000/svg" xmlns:xlink="http://www.w3.org/1999/xlink" x="0px" y="0px"
	 viewBox="0 0 225 132.4" style="enable-background:new 0 0 225 132.4;" xml:space="preserve">
<style type="text/css">
	.st0{fill:#EA0F19;}
	.st1{fill:#EA101A;}
</style>
<g>
	<path class="st0" d="M12.8,98.4c2.6,0.1,5,0.7,7.3,2c0.5,0.3,0.6,0.5,0.3,1c-0.8,1.4-1.5,2.9-2.2,4.4c-0.2,0.5-0.4,0.6-0.9,0.3
		c-1.4-0.7-2.8-1.3-4.4-1.2c-0.7,0-1.4,0.2-2,0.4c-1.8,0.7-2.2,3-0.8,4.3c0.7,0.6,1.5,1,2.4,1.2c1.7,0.5,3.3,1.1,4.9,1.9
		c6.7,3.2,5.8,12.1,0.8,15.4c-4.9,3.2-12.3,2.8-16.8-0.9c-0.3-0.3-0.4-0.5-0.2-0.9c0.9-1.6,1.9-3.2,2.8-4.8c0.3-0.5,0.5-0.4,0.9-0.2
		c1.6,1,3.2,1.9,5,2.1c1.1,0.1,2.1,0.2,3.2-0.3c1.1-0.5,1.7-1.2,1.8-2.4c0.1-1.1-0.5-2-1.4-2.5c-1.2-0.8-2.6-1.1-3.9-1.6
		c-1.2-0.4-2.3-0.9-3.3-1.5c-5.4-3.2-5.2-9.5-2-13.4C6.4,99.2,9.4,98.3,12.8,98.4z"/>
	<path class="st0" d="M201.7,116.9c0.8-1.2,1.7-2.4,2.5-3.5c1-1.4,2-2.8,3-4.2c0.2-0.3,0.3-0.5,0.7-0.5c2.4,0,4.8,0,7.2,0
		c0,0.4-0.2,0.6-0.4,0.8c-2.1,3-4.2,6-6.4,8.9c-0.4,0.6-0.5,1,0,1.6c2.3,3,4.6,6,6.9,8.9c0.2,0.2,0.3,0.5,0.6,0.8c-2.6,0-5,0-7.4,0
		c-0.4,0-0.5-0.3-0.7-0.5c-1.9-2.4-3.7-4.9-5.6-7.3c-0.2-0.2-0.4-0.4-0.7-0.8c0,1.9,0,3.5,0,5.2c0,0.9,0,1.9,0,2.8
		c0,0.4-0.1,0.6-0.6,0.6c-1.8,0-3.7,0-5.5,0c-0.6,0-0.5-0.3-0.5-0.7c0-2.6,0-5.1,0-7.7c0-7.2,0-14.3,0-21.5c0-0.7,0.1-1,0.9-0.9
		c1.6,0.1,3.2,0.1,4.8,0c0.7,0,0.9,0.2,0.9,0.9c0,5.4,0,10.8,0,16.1c0,0.3,0,0.6,0,0.9C201.6,116.9,201.6,116.9,201.7,116.9z"/>
	<path class="st0" d="M177.3,112c0.2-0.3,0.3-0.4,0.4-0.5c1.8-2.6,4.3-3.7,7.5-3.1c3.1,0.6,5,2.5,6,5.4c0.4,1.2,0.5,2.4,0.5,3.7
		c0,3.9,0,7.7,0,11.6c0,0.6-0.1,0.8-0.7,0.7c-1.7,0-3.4,0-5.2,0c-0.6,0-0.7-0.2-0.7-0.7c0-3.5,0-7,0-10.4c0-2-1.1-3.6-2.8-4.1
		c-2.6-0.8-5,1-5.1,3.7c-0.1,2.1,0,4.1,0,6.2c0,1.5,0,3.1,0,4.6c0,0.5-0.1,0.7-0.6,0.7c-1.8,0-3.6,0-5.3,0c-0.5,0-0.6-0.2-0.6-0.7
		c0-6.6,0-13.2,0-19.7c0-0.4,0-0.7,0.6-0.7c1.8,0,3.6,0,5.4,0c0.5,0,0.6,0.2,0.6,0.7C177.3,110.2,177.3,111,177.3,112z"/>
	<path class="st0" d="M36.3,108.1c2.2,0,4.8,1.1,7,3.1c0.4,0.4,0.5,0.6,0,1c-1.2,1.1-2.3,2.3-3.4,3.4c-0.3,0.4-0.5,0.4-0.9,0.1
		c-1.7-1.6-3.9-1.8-5.7-0.7c-1.8,1-2.8,3.1-2.4,5c0.4,2.2,2,3.8,4.2,4.1c1.5,0.2,2.8-0.2,3.8-1.3c0.5-0.4,0.7-0.4,1.1,0
		c1.1,1.1,2.2,2.3,3.4,3.3c0.5,0.4,0.4,0.7,0,1.1c-3.4,3.3-8.8,4-13.1,1.8c-4.2-2.2-6.5-6.6-5.8-11.4
		C25.2,111.9,29.7,108.2,36.3,108.1z"/>
	<path class="st0" d="M77.2,122.3c0,2.2,0,4.5,0,6.7c0,0.6-0.1,0.7-0.7,0.7c-1.7,0-3.4,0-5.2,0c-0.6,0-0.8-0.2-0.8-0.8
		c0-4.5,0-9,0-13.5c0-0.7-0.2-0.9-0.9-0.9c-0.7,0-1.6,0.3-2-0.1c-0.4-0.4-0.1-1.3-0.1-2c0-1.1,0-2.1,0-3.2c0-0.5,0.1-0.7,0.7-0.7
		c0.7,0,1.7,0.3,2.2-0.1c0.5-0.5,0.1-1.5,0.2-2.3c0-1.2,0-2.3,0-3.5c0-0.5,0.1-0.7,0.6-0.7c1.8,0,3.6,0,5.4,0c0.5,0,0.6,0.2,0.6,0.6
		c0,1.7,0,3.4,0,5.2c0,0.6,0.1,0.9,0.7,0.8c0.7,0,1.7-0.2,2.1,0.1c0.5,0.4,0.1,1.4,0.2,2.2c0,1,0,2,0,3.1c0,0.5-0.2,0.7-0.6,0.6
		c0,0-0.1,0-0.1,0c-0.7,0-1.7-0.2-2.1,0.1c-0.5,0.4-0.1,1.4-0.2,2.2C77.2,118.7,77.2,120.5,77.2,122.3z"/>
	<path class="st0" d="M83.3,119.1c0-3.2,0-6.4,0-9.6c0-0.6,0.1-0.9,0.8-0.9c1.7,0.1,3.4,0,5.2,0c0.6,0,0.7,0.2,0.7,0.7
		c0,6.6,0,13.1,0,19.7c0,0.6-0.2,0.7-0.7,0.7c-1.7,0-3.4,0-5.2,0c-0.6,0-0.7-0.1-0.7-0.7C83.3,125.7,83.3,122.4,83.3,119.1z"/>
	<path class="st0" d="M90.2,102c0,2.1-1.6,3.7-3.7,3.7c-2,0-3.7-1.7-3.7-3.7c0-2,1.7-3.7,3.7-3.7C88.6,98.4,90.2,100.1,90.2,102z"/>
	<g>
		<path class="st0" d="M137.3,109.9c-3.4-2.4-7.5-2.4-10.5-0.1c-0.4,0.3-0.7,0.6-1.1,1c-0.2-0.3-0.1-0.7-0.1-1c0-3.3,0-6.7,0-10
			c0-0.7-0.2-0.9-0.9-0.9c-1.6,0-3.2,0.1-4.7,0c-0.7,0-0.9,0.2-0.8,0.9c0,2.1,0,4.1,0,6.2c0,7.6,0,15.3,0,22.9
			c0,0.7,0.2,0.9,0.9,0.9c1.7-0.1,3.3,0,5,0c0.4,0,0.6-0.1,0.6-0.6c0-0.5,0-1,0-1.6c0.3,0.3,0.5,0.4,0.7,0.6c2.3,2.1,5,2.7,7.9,1.8
			c4.5-1.3,7.2-4.5,7.9-9C142.8,116.4,141.1,112.6,137.3,109.9z M130.6,124.2c-2.8,0-5-2.3-5-5c0-2.7,2.3-5,5-4.9
			c2.8,0,5,2.3,4.9,5.1C135.6,122,133.4,124.2,130.6,124.2z"/>
	</g>
	<g>
		<path class="st0" d="M167.6,115.2c0-2,0-3.9,0-5.9c0-0.4,0.1-0.7-0.5-0.7c-1.8,0-3.6,0-5.4,0c-0.4,0-0.5,0.1-0.5,0.5
			c0,0.5,0,1,0,1.5c-0.2,0-0.2,0-0.2,0c-0.2-0.1-0.3-0.3-0.5-0.4c-2.3-2.1-5-2.6-8-1.8c-7.2,1.9-10.3,10.9-6,17.1
			c2.4,3.5,5.8,5.3,10.2,4.6c1.7-0.3,3.1-1.2,4.5-2.6c0,0.6,0,1,0,1.4c-0.1,0.7,0.1,0.9,0.8,0.9c1.6-0.1,3.2,0,4.8,0
			c0.7,0,0.8-0.2,0.8-0.8C167.5,124.4,167.6,119.8,167.6,115.2z M156.1,124.2c-2.7,0-5-2.2-5-4.9c0-2.8,2.2-5,5-5.1c2.7,0,5,2.3,5,5
			C161,121.9,158.8,124.2,156.1,124.2z"/>
	</g>
	<g>
		<path class="st0" d="M115,108.6c-1.3,0-2.5,0-3.8,0c-0.6,0-1.5-0.3-1.8,0.1c-0.3,0.4-0.1,1.2-0.1,1.8c0,0,0,0-0.1,0.2
			c-0.2-0.2-0.4-0.3-0.6-0.5c-2.4-2.1-5.1-2.7-8.1-1.8c-4.5,1.3-7.1,4.5-7.8,9c-0.7,4.5,1,8.3,4.7,11c3.5,2.5,8.2,2.5,11.3-0.6
			c0.1-0.1,0.2-0.2,0.5-0.1c0,0.4,0,0.9,0,1.3c-0.1,0.6,0.2,0.7,0.7,0.7c1.7,0,3.4,0,5.1,0c0.5,0,0.7-0.1,0.7-0.6
			c0-6.6,0-13.3,0-19.9C115.7,108.7,115.5,108.6,115,108.6z M104.2,124.2c-2.7,0-5-2.2-5-4.9c0-2.7,2.3-5,5-5c2.8,0,5,2.3,5,5.1
			C109.1,122,106.9,124.2,104.2,124.2z"/>
	</g>
	<g>
		<path class="st0" d="M55.1,108.1c-6.1,0-11.1,4.9-11.1,11.1c0,6.1,4.9,11.1,11.1,11.1c6.1,0,11-5,11-11
			C66.2,113.1,61.2,108.1,55.1,108.1z M55.2,124.1c-2.7,0-4.9-2.2-4.9-4.9c0-2.7,2.2-4.9,4.8-4.9c2.7,0,4.9,2.2,4.9,4.9
			C60.1,121.8,57.8,124.1,55.2,124.1z"/>
	</g>
	<g>
		<path class="st1" d="M220.5,122.4c-2,0-3.7,1.6-3.7,3.7c0,2,1.6,3.7,3.6,3.7c2.1,0,3.7-1.6,3.7-3.7
			C224.2,124,222.5,122.4,220.5,122.4z M220.5,129c-1.6,0-3-1.3-3-2.9c0-1.6,1.3-3,2.9-3c1.6,0,2.9,1.3,3,2.9
			C223.5,127.6,222.1,129,220.5,129z"/>
	</g>
</g>
<g>
	<path class="st0" d="M66.7,93.1c0.6,0,0.9-0.6,1.3-1c5.3-5.3,10.6-10.5,15.9-15.9c0.9-0.9,1.7-1.2,2.9-1.2c8.7,0,17.4-0.3,26.1,0.1
		c11.3,0.4,23.8-9,26.5-21.7c0.4-1.7,0.5-3.4,0.6-5.4c1.6,2.5,2.3,5,2.9,7.6c2.8,13.4-2.6,26.2-14.1,33.3c-3.6,2.2-9.9,3.8-13.2,4.4
		c-15.9,0-31.8,0-47.6,0C67.5,93.4,67,93.7,66.7,93.1z"/>
	<path class="st0" d="M108.8,20.3C97.8,21.7,85.4,32.1,85,47c-1.4-2.1-2-4.2-2.5-6.3c-4.7-19.8,7.7-33.4,20.2-37.6
		c1.8-0.6,3.6-1.1,5.5-1.1c0.5-0.3,1.1,0.1,1.6-0.3c16,0,32,0,47.9,0c0.1,0.7-0.5,1-0.9,1.3c-5.3,5.3-10.6,10.6-15.9,16
		c-0.7,0.7-1.5,1.1-2.5,1.1c-9.2,0-18.4,0-27.6,0C110.1,20.1,109.4,20,108.8,20.3z"/>
	<path class="st0" d="M108.8,20.3c0.3-0.9,1-0.5,1.5-0.5c9.3,0,18.5,0,27.8,0c1.1,0,2-0.3,2.8-1.1c5.2-5.3,10.5-10.5,15.7-15.8
		c0.4-0.4,0.7-0.8,1-1.1c0.2,0.1,0.7-0.3,0.6,0.3c-0.6,0.1-0.9,0.6-1.3,1c-5.4,5.4-10.7,10.8-16.1,16.2c-0.6,0.6-1.1,1-2.1,1
		C128.9,20.3,118.8,20.3,108.8,20.3z"/>
	<path class="st0" d="M109.7,1.8c-0.5,0.5-1,0.3-1.6,0.3c0-0.1,0-0.2,0.1-0.3C108.7,1.8,109.2,1.8,109.7,1.8z"/>
	<path class="st0" d="M112.5,48.8c3,0,6,0,9,0c0.5,0,1.2-0.1,1,0.8c-0.4,2.9-0.8,5.7-1.6,8.5c-0.2,0.8-0.6,1-1.4,1
		c-4.7,0-9.4,0-14,0c-0.6,0-1-0.2-1.2-0.8c-0.9-2.9-1.3-5.8-1.7-8.8c-0.1-0.9,0.5-0.7,1-0.7C106.5,48.8,109.5,48.8,112.5,48.8z"/>
	<path class="st0" d="M112.4,46.7c-2.9,0-5.9,0-8.8,0c-1,0-1.2-0.2-1-1.2c0.4-2.7,0.8-5.4,1.6-8.1c0.3-0.8,0.6-1.1,1.5-1.1
		c4.6,0,9.1,0,13.7,0c1,0,1.3,0.4,1.6,1.2c0.8,2.7,1.2,5.4,1.6,8.2c0.1,1-0.4,0.9-1.1,0.9C118.4,46.7,115.4,46.7,112.4,46.7z"/>
	<path class="st0" d="M122.9,59.2c1.1-3.2,1.6-6.3,1.7-9.5c0-0.8,0.4-0.9,1-0.9c3.8,0,7.5,0,11.3,0c0.9,0,1,0.4,0.9,1.1
		c-0.4,2.9-1.1,5.8-2.4,8.4c-0.3,0.5-0.6,0.9-1.2,0.9C130.5,59.2,126.8,59.2,122.9,59.2z"/>
	<path class="st0" d="M93.8,48.8c1.7,0,3.5,0.1,5.2,0c1,0,1.5,0.2,1.5,1.3c0.1,2.8,0.6,5.4,1.5,8.1c0.3,0.8,0.2,1.1-0.7,1.1
		c-3.4,0-6.8,0-10.2,0c-0.6,0-1-0.2-1.3-0.8c-1.3-2.8-2-5.7-2.5-8.7c-0.1-0.9,0.4-0.9,1-0.9C90.1,48.8,91.9,48.8,93.8,48.8z"/>
	<path class="st0" d="M93.7,46.7c-1.9,0-3.8,0-5.6,0c-0.8,0-1-0.2-0.9-1c0.4-2.8,1.1-5.6,2.3-8.2c0.4-0.9,0.9-1.2,1.8-1.2
		c3.3,0.1,6.5,0,9.8,0c0.9,0,1.2,0.1,0.8,1.1c-0.9,2.6-1.4,5.2-1.4,7.9c0,1-0.3,1.4-1.4,1.4C97.3,46.7,95.5,46.7,93.7,46.7z"/>
	<path class="st0" d="M131.2,46.7c-1.8,0-3.7,0-5.5,0c-0.7,0-1.1-0.2-1.1-1c-0.1-2.9-0.5-5.8-1.5-8.5c-0.3-0.8,0.1-0.8,0.7-0.8
		c3.4,0,6.8,0,10.2,0c0.7,0,1.1,0.3,1.4,0.9c1.3,2.7,2,5.5,2.4,8.4c0.1,0.9-0.2,1-1,1C135,46.7,133.1,46.7,131.2,46.7z"/>
	<path class="st0" d="M111.6,22.5c-3.8,3.3-6.7,6.7-8.4,11c-0.2,0.4-0.5,0.6-0.9,0.6c-3.6,0-7.2,0-11.1,0
		C96.4,27.1,102.7,22.9,111.6,22.5z"/>
	<path class="st0" d="M110,72.7C102,72,96,67.9,91.3,61.2c3.9,0,7.6,0,11.2,0c0.8,0,0.8,0.6,1,1.1c1.8,4,4.4,7.3,7.7,10
		C111,73.2,110.5,72.7,110,72.7z"/>
	<path class="st0" d="M113.9,22.7c8.4,0.3,14.6,4.4,19.4,11c-0.2,0.6-0.7,0.4-1,0.4c-3.1,0-6.1,0-9.2,0c-0.6,0-1.2,0-1.5-0.7
		C119.9,29.2,117.2,25.7,113.9,22.7z"/>
	<path class="st0" d="M113.7,72.6c3.5-3.1,6.2-6.6,8-10.7c0.2-0.4,0.4-0.7,0.9-0.7c3.5,0,7.1,0,10.7,0
		C130.6,67.5,121.1,73,113.7,72.6z"/>
	<path class="st0" d="M119.6,34c-4.8,0-9.4,0-14.1,0c1.2-2.6,2.8-4.8,4.7-6.8c2.4-2.7,2.4-2.7,4.8,0C116.8,29.3,118.3,31.4,119.6,34
		z"/>
	<path class="st0" d="M119.5,61.3c-1.6,3.4-3.8,6.2-6.4,8.8c-0.5,0.5-0.8,0.5-1.2,0c-2.6-2.5-4.8-5.4-6.4-8.8
		C110.2,61.3,114.8,61.3,119.5,61.3z"/>
	<path class="st0" d="M110,72.7c0.4-0.2,0.9,0.2,1.2-0.3c0.2,0.1,0.4,0.3,0.2,0.4C111,73,110.5,73,110,72.7z"/>
</g>
<g>
	<path class="st0" d="M219.2,123.6c0.3-0.1,0.7-0.1,1.2-0.1c0.7,0,1.1,0.1,1.4,0.4c0.2,0.2,0.4,0.5,0.4,0.9c0,0.6-0.4,1-0.9,1.2v0
		c0.4,0.1,0.6,0.5,0.7,1c0.2,0.7,0.3,1.1,0.4,1.3h-0.6c-0.1-0.1-0.2-0.5-0.3-1.1c-0.1-0.7-0.4-0.9-0.9-0.9h-0.6v2h-0.6V123.6z
		 M219.8,125.7h0.6c0.7,0,1.1-0.4,1.1-0.9c0-0.6-0.4-0.9-1.1-0.9c-0.3,0-0.5,0-0.6,0.1V125.7z"/>
</g>
</svg>
