<?xml version="1.0" encoding="utf-8"?>
<!-- Generator: Adobe Illustrator 23.0.0, SVG Export Plug-In . SVG Version: 6.00 Build 0)  -->
<svg version="1.1" id="Layer_1" xmlns="http://www.w3.org/2000/svg" xmlns:xlink="http://www.w3.org/1999/xlink" x="0px" y="0px"
	 viewBox="0 0 352 132.4" style="enable-background:new 0 0 352 132.4;" xml:space="preserve">
<style type="text/css">
	.st0{display:none;fill:#C9232F;}
	.st1{display:none;}
	.st2{display:inline;}
	.st3{fill:#EA0F19;}
	.st4{fill:#EA101A;}
	.st5{fill:#0050A4;}
	.st6{fill:#16478D;}
	.st7{fill:#FECD07;}
	.st8{fill:#FDFDFE;}
	.st9{fill:#FDFEFE;}
	.st10{fill:#093F94;}
	.st11{fill:#11448B;}
	.st12{fill:#676F6C;}
	.st13{fill:#0E4089;}
	.st14{fill:#4D676E;}
	.st15{fill:#083F96;}
	.st16{fill:#104392;}
	.st17{fill:#14448C;}
	.st18{fill:#0A4094;}
	.st19{fill:#FED202;}
	.st20{fill:#073B86;}
	.st21{fill:#104490;}
	.st22{fill:#FBD503;}
	.st23{fill:#104391;}
	.st24{fill:#0C4089;}
	.st25{fill:#18478E;}
	.st26{fill:#C3A732;}
	.st27{fill:#0A4093;}
	.st28{fill:#FCD303;}
	.st29{fill:#FED500;}
	.st30{fill:#0C4095;}
	.st31{fill:#154494;}
	.st32{fill:#67755F;}
	.st33{fill:#063D97;}
	.st34{fill:#043C98;}
	.st35{fill:#9D8F53;}
	.st36{fill:#BBA239;}
	.st37{fill:#083F95;}
	.st38{fill:#093F95;}
	.st39{fill:#214D89;}
	.st40{fill:#0A3F95;}
	.st41{fill:#0E4194;}
	.st42{fill:#0B3F96;}
	.st43{fill:#083E96;}
	.st44{fill:#E6C117;}
	.st45{fill:#787F57;}
	.st46{fill:#87845B;}
	.st47{fill:#0C4194;}
	.st48{fill:#0E408A;}
	.st49{fill:#0B4192;}
	.st50{fill:#0B4095;}
	.st51{fill:#968B53;}
	.st52{fill:#EAC513;}
	.st53{fill:#AE9A42;}
	.st54{fill:#FED501;}
	.st55{fill:#BBA934;}
	.st56{fill:#0A3D88;}
	.st57{fill:#AD9B40;}
	.st58{fill:#0B3E88;}
	.st59{fill:#073F95;}
	.st60{fill:#0A4193;}
	.st61{fill:#17478D;}
	.st62{fill:#15468E;}
	.st63{fill:#18488D;}
	.st64{fill:#1A498C;}
	.st65{fill:#1D4A8B;}
	.st66{fill:#A19253;}
	.st67{fill:#174690;}
	.st68{fill:#0C4094;}
	.st69{fill:#094094;}
	.st70{fill:#FED301;}
	.st71{fill:#F8CD0A;}
	.st72{fill:#FED600;}
	.st73{fill:#FCD104;}
	.st74{fill:#083E97;}
	.st75{fill:#757A61;}
	.st76{fill:#01369F;}
	.st77{fill:#8F8759;}
	.st78{fill:#FED401;}
	.st79{fill:#FED300;}
	.st80{fill:#FED700;}
	.st81{fill:#FED400;}
	.st82{fill:#17478E;}
	.st83{fill:#16478E;}
	.st84{fill:#0F428A;}
	.st85{fill:#17488E;}
	.st86{fill:#948A56;}
	.st87{display:inline;fill:#16478D;}
	.st88{display:inline;fill:#0075C3;}
	.st89{display:inline;fill:#676767;}
	.st90{display:inline;fill:#2D6F9A;}
	.st91{display:inline;fill:#0078CD;}
	.st92{display:inline;fill:#EA3526;}
	.st93{display:inline;fill:#FEFEFE;}
	.st94{display:inline;fill:#F9FBFD;}
	.st95{display:inline;fill:#006DC0;}
	.st96{display:inline;fill:#006EC0;}
	.st97{display:inline;fill:#036BBF;}
	.st98{display:inline;fill:#006CBF;}
	.st99{display:inline;fill:#006ABE;}
	.st100{display:inline;fill:#FA2F19;}
	.st101{display:inline;fill:#E3382F;}
	.st102{display:inline;fill:#006BBF;}
	.st103{display:inline;fill:#F7301A;}
	.st104{display:inline;fill:#368FCE;}
	.st105{display:inline;fill:#F4311C;}
	.st106{display:inline;fill:#EA3020;}
	.st107{display:inline;fill:#F03220;}
	.st108{display:inline;fill:#EF3320;}
	.st109{display:inline;fill:#F4311D;}
	.st110{display:inline;fill:#F3311D;}
	.st111{display:inline;fill:#E92414;}
	.st112{display:inline;fill:#E82414;}
	.st113{display:inline;fill:#F8301A;}
	.st114{display:inline;fill:#0076C3;}
	.st115{display:inline;fill:#006BBE;}
	.st116{display:inline;fill:#DBE7F3;}
	.st117{display:inline;fill:#66A8D9;}
	.st118{display:inline;fill:#026EC0;}
	.st119{display:inline;fill:#F6F9FC;}
	.st120{display:inline;fill:#0E7BC6;}
	.st121{display:inline;fill:#0E7AC5;}
	.st122{display:inline;fill:#0677C4;}
	.st123{display:inline;fill:#177CC6;}
	.st124{display:inline;fill:#046EC0;}
	.st125{display:inline;fill:#F39088;}
	.st126{display:inline;fill:#F18178;}
	.st127{display:inline;fill:#F0756B;}
	.st128{display:inline;fill:#1980C8;}
	.st129{fill:#F37525;}
	.st130{fill:#D0D2D3;}
	.st131{fill:#E6E7E8;}
	.st132{fill:#DBD7D7;}
	.st133{fill:#D1CFCF;}
	.st134{fill:#DF7F1C;}
</style>
<rect x="-56.6" y="-12.4" class="st0" width="348.8" height="203.5"/>
<g id="Scotia" class="st1">
	<g class="st2">
		<path class="st3" d="M12.8,98.4c2.6,0.1,5,0.7,7.3,2c0.5,0.3,0.6,0.5,0.3,1c-0.8,1.4-1.5,2.9-2.2,4.4c-0.2,0.5-0.4,0.6-0.9,0.3
			c-1.4-0.7-2.8-1.3-4.4-1.2c-0.7,0-1.4,0.2-2,0.4c-1.8,0.7-2.2,3-0.8,4.3c0.7,0.6,1.5,1,2.4,1.2c1.7,0.5,3.3,1.1,4.9,1.9
			c6.7,3.2,5.8,12.1,0.8,15.4c-4.9,3.2-12.3,2.8-16.8-0.9c-0.3-0.3-0.4-0.5-0.2-0.9c0.9-1.6,1.9-3.2,2.8-4.8
			c0.3-0.5,0.5-0.4,0.9-0.2c1.6,1,3.2,1.9,5,2.1c1.1,0.1,2.1,0.2,3.2-0.3c1.1-0.5,1.7-1.2,1.8-2.4c0.1-1.1-0.5-2-1.4-2.5
			c-1.2-0.8-2.6-1.1-3.9-1.6c-1.2-0.4-2.3-0.9-3.3-1.5c-5.4-3.2-5.2-9.5-2-13.4C6.4,99.2,9.4,98.3,12.8,98.4z"/>
		<path class="st3" d="M201.7,116.9c0.8-1.2,1.7-2.4,2.5-3.5c1-1.4,2-2.8,3-4.2c0.2-0.3,0.3-0.5,0.7-0.5c2.4,0,4.8,0,7.2,0
			c0,0.4-0.2,0.6-0.4,0.8c-2.1,3-4.2,6-6.4,8.9c-0.4,0.6-0.5,1,0,1.6c2.3,3,4.6,6,6.9,8.9c0.2,0.2,0.3,0.5,0.6,0.8c-2.6,0-5,0-7.4,0
			c-0.4,0-0.5-0.3-0.7-0.5c-1.9-2.4-3.7-4.9-5.6-7.3c-0.2-0.2-0.4-0.4-0.7-0.8c0,1.9,0,3.5,0,5.2c0,0.9,0,1.9,0,2.8
			c0,0.4-0.1,0.6-0.6,0.6c-1.8,0-3.7,0-5.5,0c-0.6,0-0.5-0.3-0.5-0.7c0-2.6,0-5.1,0-7.7c0-7.2,0-14.3,0-21.5c0-0.7,0.1-1,0.9-0.9
			c1.6,0.1,3.2,0.1,4.8,0c0.7,0,0.9,0.2,0.9,0.9c0,5.4,0,10.8,0,16.1c0,0.3,0,0.6,0,0.9C201.6,116.9,201.6,116.9,201.7,116.9z"/>
		<path class="st3" d="M177.3,112c0.2-0.3,0.3-0.4,0.4-0.5c1.8-2.6,4.3-3.7,7.5-3.1c3.1,0.6,5,2.5,6,5.4c0.4,1.2,0.5,2.4,0.5,3.7
			c0,3.9,0,7.7,0,11.6c0,0.6-0.1,0.8-0.7,0.7c-1.7,0-3.4,0-5.2,0c-0.6,0-0.7-0.2-0.7-0.7c0-3.5,0-7,0-10.4c0-2-1.1-3.6-2.8-4.1
			c-2.6-0.8-5,1-5.1,3.7c-0.1,2.1,0,4.1,0,6.2c0,1.5,0,3.1,0,4.6c0,0.5-0.1,0.7-0.6,0.7c-1.8,0-3.6,0-5.3,0c-0.5,0-0.6-0.2-0.6-0.7
			c0-6.6,0-13.2,0-19.7c0-0.4,0-0.7,0.6-0.7c1.8,0,3.6,0,5.4,0c0.5,0,0.6,0.2,0.6,0.7C177.3,110.2,177.3,111,177.3,112z"/>
		<path class="st3" d="M36.3,108.1c2.2,0,4.8,1.1,7,3.1c0.4,0.4,0.5,0.6,0,1c-1.2,1.1-2.3,2.3-3.4,3.4c-0.3,0.4-0.5,0.4-0.9,0.1
			c-1.7-1.6-3.9-1.8-5.7-0.7c-1.8,1-2.8,3.1-2.4,5c0.4,2.2,2,3.8,4.2,4.1c1.5,0.2,2.8-0.2,3.8-1.3c0.5-0.4,0.7-0.4,1.1,0
			c1.1,1.1,2.2,2.3,3.4,3.3c0.5,0.4,0.4,0.7,0,1.1c-3.4,3.3-8.8,4-13.1,1.8c-4.2-2.2-6.5-6.6-5.8-11.4
			C25.2,111.9,29.7,108.2,36.3,108.1z"/>
		<path class="st3" d="M77.2,122.3c0,2.2,0,4.5,0,6.7c0,0.6-0.1,0.7-0.7,0.7c-1.7,0-3.4,0-5.2,0c-0.6,0-0.8-0.2-0.8-0.8
			c0-4.5,0-9,0-13.5c0-0.7-0.2-0.9-0.9-0.9c-0.7,0-1.6,0.3-2-0.1c-0.4-0.4-0.1-1.3-0.1-2c0-1.1,0-2.1,0-3.2c0-0.5,0.1-0.7,0.7-0.7
			c0.7,0,1.7,0.3,2.2-0.1c0.5-0.5,0.1-1.5,0.2-2.3c0-1.2,0-2.3,0-3.5c0-0.5,0.1-0.7,0.6-0.7c1.8,0,3.6,0,5.4,0
			c0.5,0,0.6,0.2,0.6,0.6c0,1.7,0,3.4,0,5.2c0,0.6,0.1,0.9,0.7,0.8c0.7,0,1.7-0.2,2.1,0.1c0.5,0.4,0.1,1.4,0.2,2.2c0,1,0,2,0,3.1
			c0,0.5-0.2,0.7-0.6,0.6c0,0-0.1,0-0.1,0c-0.7,0-1.7-0.2-2.1,0.1c-0.5,0.4-0.1,1.4-0.2,2.2C77.2,118.7,77.2,120.5,77.2,122.3z"/>
		<path class="st3" d="M83.3,119.1c0-3.2,0-6.4,0-9.6c0-0.6,0.1-0.9,0.8-0.9c1.7,0.1,3.4,0,5.2,0c0.6,0,0.7,0.2,0.7,0.7
			c0,6.6,0,13.1,0,19.7c0,0.6-0.2,0.7-0.7,0.7c-1.7,0-3.4,0-5.2,0c-0.6,0-0.7-0.1-0.7-0.7C83.3,125.7,83.3,122.4,83.3,119.1z"/>
		<path class="st3" d="M90.2,102c0,2.1-1.6,3.7-3.7,3.7c-2,0-3.7-1.7-3.7-3.7c0-2,1.7-3.7,3.7-3.7C88.6,98.4,90.2,100.1,90.2,102z"
			/>
		<g>
			<path class="st3" d="M137.3,109.9c-3.4-2.4-7.5-2.4-10.5-0.1c-0.4,0.3-0.7,0.6-1.1,1c-0.2-0.3-0.1-0.7-0.1-1c0-3.3,0-6.7,0-10
				c0-0.7-0.2-0.9-0.9-0.9c-1.6,0-3.2,0.1-4.7,0c-0.7,0-0.9,0.2-0.8,0.9c0,2.1,0,4.1,0,6.2c0,7.6,0,15.3,0,22.9
				c0,0.7,0.2,0.9,0.9,0.9c1.7-0.1,3.3,0,5,0c0.4,0,0.6-0.1,0.6-0.6c0-0.5,0-1,0-1.6c0.3,0.3,0.5,0.4,0.7,0.6c2.3,2.1,5,2.7,7.9,1.8
				c4.5-1.3,7.2-4.5,7.9-9C142.8,116.4,141.1,112.6,137.3,109.9z M130.6,124.2c-2.8,0-5-2.3-5-5c0-2.7,2.3-5,5-4.9
				c2.8,0,5,2.3,4.9,5.1C135.6,122,133.4,124.2,130.6,124.2z"/>
		</g>
		<g>
			<path class="st3" d="M167.6,115.2c0-2,0-3.9,0-5.9c0-0.4,0.1-0.7-0.5-0.7c-1.8,0-3.6,0-5.4,0c-0.4,0-0.5,0.1-0.5,0.5
				c0,0.5,0,1,0,1.5c-0.2,0-0.2,0-0.2,0c-0.2-0.1-0.3-0.3-0.5-0.4c-2.3-2.1-5-2.6-8-1.8c-7.2,1.9-10.3,10.9-6,17.1
				c2.4,3.5,5.8,5.3,10.2,4.6c1.7-0.3,3.1-1.2,4.5-2.6c0,0.6,0,1,0,1.4c-0.1,0.7,0.1,0.9,0.8,0.9c1.6-0.1,3.2,0,4.8,0
				c0.7,0,0.8-0.2,0.8-0.8C167.5,124.4,167.6,119.8,167.6,115.2z M156.1,124.2c-2.7,0-5-2.2-5-4.9c0-2.8,2.2-5,5-5.1
				c2.7,0,5,2.3,5,5C161,121.9,158.8,124.2,156.1,124.2z"/>
		</g>
		<g>
			<path class="st3" d="M115,108.6c-1.3,0-2.5,0-3.8,0c-0.6,0-1.5-0.3-1.8,0.1c-0.3,0.4-0.1,1.2-0.1,1.8c0,0,0,0-0.1,0.2
				c-0.2-0.2-0.4-0.3-0.6-0.5c-2.4-2.1-5.1-2.7-8.1-1.8c-4.5,1.3-7.1,4.5-7.8,9c-0.7,4.5,1,8.3,4.7,11c3.5,2.5,8.2,2.5,11.3-0.6
				c0.1-0.1,0.2-0.2,0.5-0.1c0,0.4,0,0.9,0,1.3c-0.1,0.6,0.2,0.7,0.7,0.7c1.7,0,3.4,0,5.1,0c0.5,0,0.7-0.1,0.7-0.6
				c0-6.6,0-13.3,0-19.9C115.7,108.7,115.5,108.6,115,108.6z M104.2,124.2c-2.7,0-5-2.2-5-4.9c0-2.7,2.3-5,5-5c2.8,0,5,2.3,5,5.1
				C109.1,122,106.9,124.2,104.2,124.2z"/>
		</g>
		<g>
			<path class="st3" d="M55.1,108.1c-6.1,0-11.1,4.9-11.1,11.1c0,6.1,4.9,11.1,11.1,11.1c6.1,0,11-5,11-11
				C66.2,113.1,61.2,108.1,55.1,108.1z M55.2,124.1c-2.7,0-4.9-2.2-4.9-4.9c0-2.7,2.2-4.9,4.8-4.9c2.7,0,4.9,2.2,4.9,4.9
				C60.1,121.8,57.8,124.1,55.2,124.1z"/>
		</g>
		<g>
			<path class="st4" d="M220.5,122.4c-2,0-3.7,1.6-3.7,3.7c0,2,1.6,3.7,3.6,3.7c2.1,0,3.7-1.6,3.7-3.7
				C224.2,124,222.5,122.4,220.5,122.4z M220.5,129c-1.6,0-3-1.3-3-2.9c0-1.6,1.3-3,2.9-3c1.6,0,2.9,1.3,3,2.9
				C223.5,127.6,222.1,129,220.5,129z"/>
		</g>
	</g>
	<g class="st2">
		<path class="st3" d="M66.7,93.1c0.6,0,0.9-0.6,1.3-1c5.3-5.3,10.6-10.5,15.9-15.9c0.9-0.9,1.7-1.2,2.9-1.2
			c8.7,0,17.4-0.3,26.1,0.1c11.3,0.4,23.8-9,26.5-21.7c0.4-1.7,0.5-3.4,0.6-5.4c1.6,2.5,2.3,5,2.9,7.6c2.8,13.4-2.6,26.2-14.1,33.3
			c-3.6,2.2-9.9,3.8-13.2,4.4c-15.9,0-31.8,0-47.6,0C67.5,93.4,67,93.7,66.7,93.1z"/>
		<path class="st3" d="M108.8,20.3C97.8,21.7,85.4,32.1,85,47c-1.4-2.1-2-4.2-2.5-6.3c-4.7-19.8,7.7-33.4,20.2-37.6
			c1.8-0.6,3.6-1.1,5.5-1.1c0.5-0.3,1.1,0.1,1.6-0.3c16,0,32,0,47.9,0c0.1,0.7-0.5,1-0.9,1.3c-5.3,5.3-10.6,10.6-15.9,16
			c-0.7,0.7-1.5,1.1-2.5,1.1c-9.2,0-18.4,0-27.6,0C110.1,20.1,109.4,20,108.8,20.3z"/>
		<path class="st3" d="M108.8,20.3c0.3-0.9,1-0.5,1.5-0.5c9.3,0,18.5,0,27.8,0c1.1,0,2-0.3,2.8-1.1c5.2-5.3,10.5-10.5,15.7-15.8
			c0.4-0.4,0.7-0.8,1-1.1c0.2,0.1,0.7-0.3,0.6,0.3c-0.6,0.1-0.9,0.6-1.3,1c-5.4,5.4-10.7,10.8-16.1,16.2c-0.6,0.6-1.1,1-2.1,1
			C128.9,20.3,118.8,20.3,108.8,20.3z"/>
		<path class="st3" d="M109.7,1.8c-0.5,0.5-1,0.3-1.6,0.3c0-0.1,0-0.2,0.1-0.3C108.7,1.8,109.2,1.8,109.7,1.8z"/>
		<path class="st3" d="M112.5,48.8c3,0,6,0,9,0c0.5,0,1.2-0.1,1,0.8c-0.4,2.9-0.8,5.7-1.6,8.5c-0.2,0.8-0.6,1-1.4,1
			c-4.7,0-9.4,0-14,0c-0.6,0-1-0.2-1.2-0.8c-0.9-2.9-1.3-5.8-1.7-8.8c-0.1-0.9,0.5-0.7,1-0.7C106.5,48.8,109.5,48.8,112.5,48.8z"/>
		<path class="st3" d="M112.4,46.7c-2.9,0-5.9,0-8.8,0c-1,0-1.2-0.2-1-1.2c0.4-2.7,0.8-5.4,1.6-8.1c0.3-0.8,0.6-1.1,1.5-1.1
			c4.6,0,9.1,0,13.7,0c1,0,1.3,0.4,1.6,1.2c0.8,2.7,1.2,5.4,1.6,8.2c0.1,1-0.4,0.9-1.1,0.9C118.4,46.7,115.4,46.7,112.4,46.7z"/>
		<path class="st3" d="M122.9,59.2c1.1-3.2,1.6-6.3,1.7-9.5c0-0.8,0.4-0.9,1-0.9c3.8,0,7.5,0,11.3,0c0.9,0,1,0.4,0.9,1.1
			c-0.4,2.9-1.1,5.8-2.4,8.4c-0.3,0.5-0.6,0.9-1.2,0.9C130.5,59.2,126.8,59.2,122.9,59.2z"/>
		<path class="st3" d="M93.8,48.8c1.7,0,3.5,0.1,5.2,0c1,0,1.5,0.2,1.5,1.3c0.1,2.8,0.6,5.4,1.5,8.1c0.3,0.8,0.2,1.1-0.7,1.1
			c-3.4,0-6.8,0-10.2,0c-0.6,0-1-0.2-1.3-0.8c-1.3-2.8-2-5.7-2.5-8.7c-0.1-0.9,0.4-0.9,1-0.9C90.1,48.8,91.9,48.8,93.8,48.8z"/>
		<path class="st3" d="M93.7,46.7c-1.9,0-3.8,0-5.6,0c-0.8,0-1-0.2-0.9-1c0.4-2.8,1.1-5.6,2.3-8.2c0.4-0.9,0.9-1.2,1.8-1.2
			c3.3,0.1,6.5,0,9.8,0c0.9,0,1.2,0.1,0.8,1.1c-0.9,2.6-1.4,5.2-1.4,7.9c0,1-0.3,1.4-1.4,1.4C97.3,46.7,95.5,46.7,93.7,46.7z"/>
		<path class="st3" d="M131.2,46.7c-1.8,0-3.7,0-5.5,0c-0.7,0-1.1-0.2-1.1-1c-0.1-2.9-0.5-5.8-1.5-8.5c-0.3-0.8,0.1-0.8,0.7-0.8
			c3.4,0,6.8,0,10.2,0c0.7,0,1.1,0.3,1.4,0.9c1.3,2.7,2,5.5,2.4,8.4c0.1,0.9-0.2,1-1,1C135,46.7,133.1,46.7,131.2,46.7z"/>
		<path class="st3" d="M111.6,22.5c-3.8,3.3-6.7,6.7-8.4,11c-0.2,0.4-0.5,0.6-0.9,0.6c-3.6,0-7.2,0-11.1,0
			C96.4,27.1,102.7,22.9,111.6,22.5z"/>
		<path class="st3" d="M110,72.7C102,72,96,67.9,91.3,61.2c3.9,0,7.6,0,11.2,0c0.8,0,0.8,0.6,1,1.1c1.8,4,4.4,7.3,7.7,10
			C111,73.2,110.5,72.7,110,72.7z"/>
		<path class="st3" d="M113.9,22.7c8.4,0.3,14.6,4.4,19.4,11c-0.2,0.6-0.7,0.4-1,0.4c-3.1,0-6.1,0-9.2,0c-0.6,0-1.2,0-1.5-0.7
			C119.9,29.2,117.2,25.7,113.9,22.7z"/>
		<path class="st3" d="M113.7,72.6c3.5-3.1,6.2-6.6,8-10.7c0.2-0.4,0.4-0.7,0.9-0.7c3.5,0,7.1,0,10.7,0
			C130.6,67.5,121.1,73,113.7,72.6z"/>
		<path class="st3" d="M119.6,34c-4.8,0-9.4,0-14.1,0c1.2-2.6,2.8-4.8,4.7-6.8c2.4-2.7,2.4-2.7,4.8,0
			C116.8,29.3,118.3,31.4,119.6,34z"/>
		<path class="st3" d="M119.5,61.3c-1.6,3.4-3.8,6.2-6.4,8.8c-0.5,0.5-0.8,0.5-1.2,0c-2.6-2.5-4.8-5.4-6.4-8.8
			C110.2,61.3,114.8,61.3,119.5,61.3z"/>
		<path class="st3" d="M110,72.7c0.4-0.2,0.9,0.2,1.2-0.3c0.2,0.1,0.4,0.3,0.2,0.4C111,73,110.5,73,110,72.7z"/>
	</g>
	<g class="st2">
		<path class="st3" d="M219.2,123.6c0.3-0.1,0.7-0.1,1.2-0.1c0.7,0,1.1,0.1,1.4,0.4c0.2,0.2,0.4,0.5,0.4,0.9c0,0.6-0.4,1-0.9,1.2v0
			c0.4,0.1,0.6,0.5,0.7,1c0.2,0.7,0.3,1.1,0.4,1.3h-0.6c-0.1-0.1-0.2-0.5-0.3-1.1c-0.1-0.7-0.4-0.9-0.9-0.9h-0.6v2h-0.6V123.6z
			 M219.8,125.7h0.6c0.7,0,1.1-0.4,1.1-0.9c0-0.6-0.4-0.9-1.1-0.9c-0.3,0-0.5,0-0.6,0.1V125.7z"/>
	</g>
</g>
<g id="RBC" class="st1">
	<g class="st2">
		<path class="st5" d="M95.3,33.4c1.9-0.4,4.7-0.6,7.3-0.6c4.1,0,6.7,0.7,8.6,2.4c1.5,1.3,2.3,3.3,2.3,5.6c0,3.9-2.5,6.5-5.6,7.6
			v0.1c2.3,0.8,3.7,2.9,4.4,6c1,4.1,1.7,7,2.3,8.1h-4c-0.5-0.8-1.1-3.4-2-7.1c-0.9-4.1-2.5-5.6-5.9-5.8h-3.6v12.8h-3.8V33.4z
			 M99.1,47h3.9c4.1,0,6.7-2.2,6.7-5.6c0-3.8-2.8-5.5-6.8-5.5c-1.8,0-3.2,0.2-3.8,0.4V47z"/>
		<path class="st5" d="M138.3,51.9c0,7.9-5.5,11.3-10.6,11.3c-5.8,0-10.2-4.2-10.2-11c0-7.1,4.7-11.3,10.6-11.3
			C134.2,40.9,138.3,45.4,138.3,51.9z M121.4,52.1c0,4.7,2.7,8.2,6.5,8.2c3.7,0,6.5-3.5,6.5-8.3c0-3.6-1.8-8.2-6.4-8.2
			C123.4,43.8,121.4,48.1,121.4,52.1z"/>
		<path class="st5" d="M144.3,41.4l4.7,12.6c0.5,1.4,1,3.1,1.4,4.4h0.1c0.4-1.3,0.8-2.9,1.4-4.4l4.2-12.5h4.1l-5.8,15.2
			c-2.8,7.3-4.7,11-7.3,13.3c-1.9,1.7-3.8,2.3-4.8,2.5l-1-3.3c1-0.3,2.2-0.9,3.4-1.9c1.1-0.8,2.4-2.3,3.3-4.3
			c0.2-0.4,0.3-0.7,0.3-0.9c0-0.2-0.1-0.5-0.3-1l-7.9-19.6H144.3z"/>
		<path class="st5" d="M175.2,62.7l-0.3-2.7h-0.1c-1.2,1.7-3.5,3.2-6.5,3.2c-4.3,0-6.5-3-6.5-6.1c0-5.1,4.6-8,12.8-7.9v-0.4
			c0-1.8-0.5-4.9-4.8-4.9c-2,0-4,0.6-5.5,1.6l-0.9-2.6c1.8-1.1,4.3-1.9,7-1.9c6.5,0,8.1,4.4,8.1,8.7v8c0,1.8,0.1,3.7,0.4,5.1H175.2z
			 M174.6,51.8c-4.2-0.1-9,0.7-9,4.8c0,2.5,1.7,3.7,3.7,3.7c2.8,0,4.5-1.8,5.1-3.6c0.1-0.4,0.2-0.8,0.2-1.2V51.8z"/>
		<path class="st5" d="M184.6,31.5h3.9v31.2h-3.9V31.5z"/>
		<path class="st5" d="M204.5,33.4c1.7-0.4,4.3-0.6,7-0.6c3.8,0,6.3,0.7,8.1,2.2c1.5,1.1,2.5,2.9,2.5,5.2c0,2.9-1.9,5.4-5,6.5v0.1
			c2.8,0.7,6.1,3,6.1,7.4c0,2.6-1,4.5-2.5,5.9c-2.1,1.9-5.4,2.8-10.3,2.8c-2.6,0-4.7-0.2-5.9-0.4V33.4z M208.3,45.6h3.5
			c4,0,6.4-2.1,6.4-5c0-3.5-2.6-4.8-6.5-4.8c-1.8,0-2.8,0.1-3.4,0.3V45.6z M208.3,59.8c0.7,0.1,1.8,0.2,3.2,0.2c4,0,7.6-1.5,7.6-5.8
			c0-4-3.5-5.7-7.7-5.7h-3.2V59.8z"/>
		<path class="st5" d="M240,62.7l-0.3-2.7h-0.1c-1.2,1.7-3.5,3.2-6.5,3.2c-4.3,0-6.5-3-6.5-6.1c0-5.1,4.6-8,12.8-7.9v-0.4
			c0-1.8-0.5-4.9-4.8-4.9c-2,0-4,0.6-5.5,1.6l-0.9-2.6c1.8-1.1,4.3-1.9,7-1.9c6.5,0,8.1,4.4,8.1,8.7v8c0,1.8,0.1,3.7,0.4,5.1H240z
			 M239.4,51.8c-4.2-0.1-9,0.7-9,4.8c0,2.5,1.7,3.7,3.7,3.7c2.8,0,4.5-1.8,5.1-3.6c0.1-0.4,0.2-0.8,0.2-1.2V51.8z"/>
		<path class="st5" d="M249.4,47.2c0-2.2,0-4-0.2-5.8h3.4l0.2,3.5h0.1c1.1-2,3.5-4,7-4c2.9,0,7.5,1.8,7.5,9.1v12.7h-3.9V50.4
			c0-3.4-1.3-6.3-4.9-6.3c-2.6,0-4.5,1.8-5.2,4c-0.2,0.5-0.3,1.1-0.3,1.8v12.8h-3.9V47.2z"/>
		<path class="st5" d="M277.6,51.2L277.6,51.2c0.6-0.7,1.4-1.7,2-2.4l6.2-7.3h4.7l-8.2,8.8l9.4,12.5H287l-7.3-10.2l-2,2.2v8h-3.8
			V31.5h3.8V51.2z"/>
		<path class="st5" d="M114.4,104.7c0,7.9-5.5,11.3-10.6,11.3c-5.8,0-10.2-4.2-10.2-11c0-7.1,4.7-11.3,10.6-11.3
			C110.3,93.7,114.4,98.2,114.4,104.7z M97.6,104.9c0,4.7,2.7,8.2,6.5,8.2c3.7,0,6.5-3.5,6.5-8.3c0-3.6-1.8-8.2-6.4-8.2
			C99.5,96.6,97.6,100.9,97.6,104.9z"/>
		<path class="st5" d="M119.7,115.5V97.2h-3v-2.9h3v-1c0-3,0.7-5.7,2.5-7.4c1.5-1.4,3.4-2,5.2-2c1.4,0,2.6,0.3,3.3,0.6l-0.5,3
			c-0.6-0.3-1.4-0.5-2.5-0.5c-3.3,0-4.1,2.9-4.1,6.2v1.1h5.1v2.9h-5.1v18.3H119.7z"/>
		<path class="st5" d="M162.4,114.5c-1.4,0.7-4.2,1.4-7.8,1.4c-8.4,0-14.7-5.3-14.7-15c0-9.3,6.3-15.6,15.5-15.6c3.7,0,6,0.8,7,1.3
			l-0.9,3.1c-1.5-0.7-3.5-1.2-6-1.2c-7,0-11.6,4.4-11.6,12.2c0,7.3,4.2,11.9,11.4,11.9c2.3,0,4.7-0.5,6.2-1.2L162.4,114.5z"/>
		<path class="st5" d="M178.5,115.5l-0.3-2.7h-0.1c-1.2,1.7-3.5,3.2-6.5,3.2c-4.3,0-6.5-3-6.5-6.1c0-5.1,4.6-8,12.8-7.9v-0.4
			c0-1.8-0.5-4.9-4.8-4.9c-2,0-4,0.6-5.5,1.6l-0.9-2.6c1.8-1.1,4.3-1.9,7-1.9c6.5,0,8.1,4.4,8.1,8.7v8c0,1.8,0.1,3.7,0.4,5.1H178.5z
			 M177.9,104.6c-4.2-0.1-9,0.7-9,4.8c0,2.5,1.7,3.7,3.7,3.7c2.8,0,4.5-1.8,5.1-3.6c0.1-0.4,0.2-0.8,0.2-1.2V104.6z"/>
		<path class="st5" d="M187.9,100c0-2.2,0-4-0.2-5.8h3.4l0.2,3.5h0.1c1.1-2,3.5-4,7-4c2.9,0,7.5,1.8,7.5,9.1v12.7h-3.9v-12.3
			c0-3.4-1.3-6.3-4.9-6.3c-2.6,0-4.5,1.8-5.2,4c-0.2,0.5-0.3,1.1-0.3,1.8v12.8h-3.9V100z"/>
		<path class="st5" d="M224.1,115.5l-0.3-2.7h-0.1c-1.2,1.7-3.5,3.2-6.5,3.2c-4.3,0-6.5-3-6.5-6.1c0-5.1,4.6-8,12.8-7.9v-0.4
			c0-1.8-0.5-4.9-4.8-4.9c-2,0-4,0.6-5.5,1.6l-0.9-2.6c1.8-1.1,4.3-1.9,7-1.9c6.5,0,8.1,4.4,8.1,8.7v8c0,1.8,0.1,3.7,0.4,5.1H224.1z
			 M223.6,104.6c-4.2-0.1-9,0.7-9,4.8c0,2.5,1.7,3.7,3.7,3.7c2.8,0,4.5-1.8,5.1-3.6c0.1-0.4,0.2-0.8,0.2-1.2V104.6z"/>
		<path class="st5" d="M251.9,84.3V110c0,1.9,0,4,0.2,5.5h-3.5l-0.2-3.7h-0.1c-1.2,2.4-3.8,4.2-7.3,4.2c-5.1,0-9.1-4.4-9.1-10.8
			c0-7.1,4.4-11.4,9.5-11.4c3.3,0,5.5,1.5,6.4,3.3h0.1V84.3H251.9z M248.1,102.9c0-0.5,0-1.1-0.2-1.6c-0.6-2.5-2.7-4.5-5.6-4.5
			c-4,0-6.4,3.5-6.4,8.2c0,4.3,2.1,7.9,6.3,7.9c2.6,0,5-1.7,5.7-4.6c0.1-0.5,0.2-1.1,0.2-1.7V102.9z"/>
		<path class="st5" d="M270.2,115.5l-0.3-2.7h-0.1c-1.2,1.7-3.5,3.2-6.5,3.2c-4.3,0-6.5-3-6.5-6.1c0-5.1,4.6-8,12.8-7.9v-0.4
			c0-1.8-0.5-4.9-4.8-4.9c-2,0-4,0.6-5.5,1.6l-0.9-2.6c1.8-1.1,4.3-1.9,7-1.9c6.5,0,8.1,4.4,8.1,8.7v8c0,1.8,0.1,3.7,0.4,5.1H270.2z
			 M269.6,104.6c-4.2-0.1-9,0.7-9,4.8c0,2.5,1.7,3.7,3.7,3.7c2.8,0,4.5-1.8,5.1-3.6c0.1-0.4,0.2-0.8,0.2-1.2V104.6z"/>
	</g>
	<g class="st2">
		<path class="st6" d="M0.3,21.7c0.6-0.3,1.3-0.2,2-0.2c26.6,0,53.2,0,79.8,0c2.7,0,2.9,0.1,2.9,2.9c0,31.3,0,62.6,0,93.9
			c0,4.4-1.8,6.7-5.9,8.3C54.6,133,30.8,133.7,4,126c-2.3-1-3.6-2.6-3.6-5.2C0.3,120.1,0.3,54,0.3,21.7z"/>
		<path class="st7" d="M16.8,29.8c-1,0-1.8,0.5-2.2,1.4c-0.5,1.2-0.3,2.5-0.3,3.7c0.2,0.9,0.8,1.5,1.5,1.6c1.4,0.2,1.6,0.9,1.3,2.1
			c-0.4,0.5-1,0.6-1.6,0.5c-0.1,0-0.2,0-0.2,0c-2.5-0.5-4.1-2-4.8-4.5c0-0.1,0-0.2,0-0.2c0-1.1,0-2.1,0-3.2c0-0.1,0-0.2,0-0.2
			c0.7-3.5,4.1-5,6.7-5.1c1.8-0.1,3.7,0,5.5,0c0.9,0,1.3,0.3,1.3,1.2c0,0.9-0.3,1.9,0.2,2.8l0,0c0.5,0.5,1.2,0.2,1.7,0.2
			c6.9,0,13.8,0.1,20.7,0c1.8,0,2.1,0.6,2,2.1c-0.1,2.2-0.1,4.4-0.1,6.6c0,2.4-0.9,4.1-3.4,4.6c-2,0.3-3.9,0.3-5.9,0
			c-2.5-0.3-3.6,0.2-4.1,1.7c0.8-0.2,1.5-0.4,2.2-0.7c0.9-0.3,1.7-0.3,2.6,0c0.8,0.5,1.7,0.7,2.6,0.7c1-0.1,2,0,2.9,0
			c0.5-0.1,0.9-0.2,1.4-0.3c0.6,0.2,0.4,0.8,0.8,1.1c0.1,0.1,0.2,0.3,0.3,0.4c0.5,2.3,0.1,4.7,0.2,7c0,0.6-0.2,1.4,0.5,1.8
			c1.5-0.9,2.9-1.7,4.4-2.6c0.2-0.1,0.4-0.2,0.6-0.2c5,0,10,0,15,0c0.2,0,0.4,0.1,0.6,0.2c2.4,1.3,4.8,2.5,7.1,3.8
			c0.8,0.4,1.5,0.8,1.8,1.8c0,0.1,0,0.2,0,0.2c0.1,0.5,0.1,1.1,0.1,1.6c0,0.1-0.1,0.3-0.2,0.4c-0.7,1.8-2,3.2-2.7,4.9
			c-0.2,0.6-0.2,0.8,0.1,1.2c4.1,5,5.8,12.5,1.1,20.4c-0.8,1.3-1.6,2.9-3.3,3.4c0.2,0.3,0.2,0.5,0.3,0.5c5.5,2.8,4,3.1,2.7,7.9
			c-0.1,0.3-0.2,0.6-0.6,0.6c-0.5,0-0.4-0.5-0.5-0.8c-0.5-2.5-2-3.8-4.4-4.2c-0.2,0.1-0.5,0.2-0.6-0.1c-1.4-0.6-2.9-0.3-4.3-0.3
			c-3.5,0-7.1,0-10.6,0c-0.6,0-1.7-0.3-0.9,1.1c0.3,1.6,0.3,3.3,0,4.9c0,0.2,0,0.5-0.1,0.5c-0.6,0.1-0.6-0.4-0.7-0.8
			c-0.2-2.6-1.2-4.9-2.4-7.1c-2.1-4-5.5-6.7-9-9.3c-0.8-0.6-1.5-1.2-2.2-1.8c-0.3,0-0.5,0.1-0.6,0.3c-0.4,0.9,0.6,2.2-0.9,2.8
			c-3.5-5.2-7.9-9.4-13.2-12.6l0,0c-0.4-0.5-0.6-0.3-0.6,0.2c0,1,0,2,0,2.9c0,0.3,0.1,0.8-0.4,0.9c-0.5,0.1-0.6-0.4-0.7-0.7
			c-0.8-2.2-2.1-4.2-3.7-5.8c-2.2-2.3-4.5-4.6-6.8-6.7C9.3,59,5.8,55.3,5.4,49.8c-0.3-1.5-0.2-2.9,0-4.4c0.4-2.6,1.1-5,4-6.1
			c0.1,0.6,0.2,1.3-0.2,1.9c-1.2,0.8-1.2,2.1-1.6,3.3c-0.3,1.3-0.3,2.7,0,4c0.2,3.2,2.1,5.6,4.4,7.4c1.8,1.4,3,3.2,4.7,4.6
			c4.7,3.8,9.8,7.2,14.8,10.6c5.1,3.5,10.2,6.9,15.1,10.6c3.5,2.6,5.5,6,7,9.9c0.3,0.8,0.5,1,1.2,0.9c4.8-0.8,9.5-1.5,14.3-2.3
			c0.2-0.3,0.4-0.2,0.6-0.1c1.7-0.9,3-2.2,4.1-4c-1.6-0.2-3.1-0.3-4.5-0.5c-0.9-0.1-1.8-0.5-2.6,0.3c-0.4,0.5-0.8,1-1.4,1.7
			c-0.1-1.2,0.7-2.8-1.6-2.5c1.2-0.5,2.5-0.6,2.3-2.3c-0.1-1.1,0.2-2.3,0.3-3.5c0-0.7-0.7-0.6-1.1-0.6c-2-0.1-4-0.2-6-0.4
			c-1.5-0.2-2.2,0.2-1.9,1.8c0,0.3,0.1,0.6-0.4,0.7c-0.8-0.5,0-1.7-0.7-2.2c-0.1-0.1-0.3-0.2-0.4-0.2c-0.4-0.2-1.1,0.1-1.4-0.5
			c1.8-0.3,2-1.4,1.6-2.9c0-0.1,0-0.2,0-0.4c-0.3-1.2,0.6-2.9-0.4-3.6c-0.8-0.6-2.3-0.3-3.5-0.4c-1.2-0.2-1.2-0.2-1.1,0.8
			c1.6,3.1,1.2,6.4,1,9.7c-0.2,0-0.3,0-0.5,0.1c-0.1-0.2-0.3-0.4-0.3-0.6c-0.4-7-5-11.2-10.3-14.8c-0.3-0.2-0.7-0.7-1.1-0.4
			c-0.5,0.2-0.2,0.8-0.2,1.2c0,0.9,0,1.8,0,2.6c-0.7,0.2-0.8-0.2-0.9-0.4c-1.4-4-4.4-6.8-7.9-9c-2.3-1.5-4.8-2.8-7.2-4.1
			c-3.6-2.1-5.6-6.1-4.9-10.4c0.9,0.4,1.6,0.6,1.9,1.7c1.5,5.6,4.7,7.6,10.5,6.9c0.7-0.3,1.4-0.6,2.2-0.3c1.5,0,3-0.4,4.4-0.8
			c0.7-0.4,1.4-0.7,2.2-0.3c0.9,0,1.9,0,2.8,0.1c1.9,0.2,0.6-1.3,1-1.9c0-0.2,0-0.3-0.1-0.4c-0.5-0.4-1-0.2-1.5-0.1
			c-0.1,0-0.3,0.1-0.4,0.2c-0.6,0.3-1.1,0.8-1.8,0.8c-1.2-0.1-2.5,0-3.7-0.1c-2.5-0.4-4-1.9-4.5-4.4c0-0.1,0-0.2,0-0.2
			c-0.1-0.6,0-1.3-0.1-1.9c0-0.2,0.1-0.3,0.2-0.4c0.6-2.5,2.5-3.1,4.6-3.3c1.9-0.2,3.8-0.1,5.7-0.2c2.3-0.1,2.6-0.4,2.6-2.8
			c0-1.1,0-2.2,0-3.3c-0.2-0.1-0.3-0.2-0.5-0.2c-3.8,0.1-7.7,0-11.5,0.1c-0.1,0-0.2,0-0.3,0.1c-0.2,0.1-0.3,0.2-0.5,0.3
			c-0.4,0.8-0.2,1.6-0.2,2.4c0,0.7,0.1,1.4-0.7,1.8c-0.1,0-0.2,0-0.3,0.1c-1-0.4-1.9-0.7-2.9-1.1c-0.5-0.2-1.1-0.3-1-1
			c0.1-0.9,0.8-0.5,1.3-0.6c0.4,0,0.9,0,1.2-0.3c0.3-0.7,0.4-1.4-0.4-1.9c-2.8-0.3-5.6,0.2-8.4-0.3c0-1.2-0.1-2.4-0.1-3.6
			c-0.1-0.1-0.2-0.2-0.4-0.3c-0.9,0.1-1.9,0-2.8,0.1c-0.1,0-0.1,0-0.2,0.1C16.9,29.7,16.9,29.7,16.8,29.8z"/>
		<path class="st8" d="M52.4,118.4c-1,2-3,3.3-6.1,4c-3.2,0.7-9.9,0.6-11.1-0.7c-1.2-1.2-0.3-10.9-0.3-13.5c0-2.5,0.4-5.2-1.8-7.1
			c4.3-0.2,8.5-0.4,12.8,0.1c0.7,0.2,1.4,0.3,2.1,0.5c2.2,0.6,3.3,1.9,3.4,3.9c0.1,2-0.8,3.5-2.7,4.4c-0.2,0.1-0.3,0.1-0.7,0.3
			c1.8,0.8,3.6,1.4,4.5,3.1C53.6,115,53.4,116.7,52.4,118.4z"/>
		<path class="st9" d="M16.1,113l-0.2,6.3c0,0,0,2.8-2.8,2.7c-0.7,0-1.3,0-2,0c-0.1-0.1-0.2-0.2-0.2-0.3c0-5.7-0.1-11.2,0.1-17
			c0-1.9-1.6-2.3-1.8-3.7c4.4-0.2,8.8-0.4,13.1,0.1c1.3,0.4,2.8,0.5,4,1.3c1,0.7,1.5,1.7,1.9,2.8c0.4,0.3,0.3,0.6,0.1,1
			c0.1,3.6-2.2,5.1-5.4,6c2.6,3.3,5,6.4,7.7,9.8c-2.1,0-3.6-0.1-5.2,0c-0.9,0-1.8-1-1.8-1l-5.4-7.5l-1.7-0.7L16.1,113z"/>
		<path class="st7" d="M7.3,66.5C7.4,68,8,69.2,9.1,70.2c0.8,0.7,1.7,1.2,2.1,2.3c4.3,3.9,9.4,6.7,14.2,9.9c4.5,3,9.1,6.1,12,10.9
			c0.9,1.5,1.2,3.3,1.9,5c0.1,0.2,0,0.5-0.2,0.6c-0.3,0.2-0.5,0-0.7-0.3c-1.1-2.7-3.4-4.4-5.4-6.3c-2-1.9-4.5-3.5-7.1-4.7
			c-0.3-0.2-0.6-0.2-0.9-0.1c-0.1,0.1-0.2,0.2-0.3,0.3c-0.4,0.9,0.5,2.4-1,2.9c-2.9-5.3-7.2-9.1-11.9-12.8C8.1,74.8,4.9,71.1,5,65.8
			c0-1.2,0.3-2.4,0.8-3.5c0.2-0.4,0.2-1.2,1-1c0.8,0.2,0.8,0.8,0.5,1.5c-0.1,0.3,0,0.6-0.1,0.9c0,0-0.1,0.2-0.1,0.2
			c0,0.1-0.1,0.2-0.1,0.4c0,0.6,0,1.2,0,1.8c0,0.1,0.1,0.2,0.1,0.4C7.2,66.4,7.2,66.4,7.3,66.5z"/>
		<path class="st8" d="M66.5,101c2.4-0.4,4.8-0.2,7.1,0.4c1.2,0.3,2,0.8,1.3,2.3c-0.3,0.5-0.4,1.2-0.6,1.8c-1-0.1-1.4-1.1-2.1-1.5
			c-3.4-1.6-8.4-1.1-9.7,3.7c-0.3,1.2-0.4,2.5-0.4,3.8c0,6.9,5.6,10.1,11.7,7.7c0.4-0.2,0.9-0.4,1.3-0.6c0.5,1.7-1.7,3.1-1.7,3.1
			c-2,0.8-4.4,0.9-7,0.7C58.7,121.5,52,104.6,66.5,101z"/>
		<path class="st10" d="M24.5,29.4c7.8,0,15.5,0,23.3,0c0,0.1,0,0.2,0,0.3c-7.8,0-15.5,0-23.3,0c-0.1-0.1-0.1-0.1-0.1-0.2
			C24.5,29.4,24.5,29.4,24.5,29.4z"/>
		<ellipse class="st11" cx="34.3" cy="113" rx="0.1" ry="11.8"/>
		<path class="st12" d="M53.6,52.6c-0.1,0-0.3,0-0.4-0.1c0-0.1,0-0.2,0-0.2C53.4,52,53.7,52,54,52c4.9,0,9.8,0,14.8,0
			c0.3,0,0.5,0.1,0.6,0.3c0,0.1,0,0.2,0,0.3c-0.1,0-0.3,0.1-0.4,0.1C63.9,52.8,58.7,52.8,53.6,52.6z"/>
		<path class="st10" d="M69.4,52.3C64,52.2,58.6,52,53.2,52.3c0.3-0.5,0.8-0.5,1.3-0.5c4.6,0,9.1,0,13.7,0
			C68.7,51.8,69.1,51.9,69.4,52.3z"/>
		<path class="st13" d="M22.2,101.1c-4.4,0-8.8,0-13.1-0.1c0.3-0.3,0.8-0.4,1.2-0.4c4.3,0,8.6,0,13,0C23,101.3,22.5,101,22.2,101.1z
			"/>
		<path class="st13" d="M45.7,101.2c-4.3,0-8.5-0.1-12.8-0.1c0.5-0.4,1-0.3,1.6-0.3c4.1,0,8.1,0,12.3,0
			C46.5,101.2,46.1,101,45.7,101.2z"/>
		<path class="st14" d="M44.7,33.8c0,0.1,0,0.2,0,0.4c-0.1,0-0.2,0-0.4,0c-4.1,0.3-8.1,0.1-12.2,0.1c-0.3-0.1-0.4-0.2-0.2-0.5l0,0
			C36.2,33.5,40.5,33.5,44.7,33.8z"/>
		<path class="st15" d="M31.9,34.2c4.1,0,8.3,0,12.4,0c-1.3,0.7-2.6,0.3-3.9,0.3c-2.7,0.1-5.5,0-8.2,0c-0.1,0.1-0.2,0.1-0.4,0.1
			C31.8,34.4,31.8,34.3,31.9,34.2z"/>
		<path class="st16" d="M49.1,30.4c0,3.1,0,6.3,0,9.4c-0.1,0-0.1,0-0.2,0c0-3.1,0-6.3,0-9.4C48.9,30.4,49,30.4,49.1,30.4z"/>
		<path class="st17" d="M52.4,118.4c0.5-1.7,0.6-3.4,0-5.1C54,114.2,54,116.9,52.4,118.4z"/>
		<path class="st18" d="M48.8,55.1c-1,0.8-0.9,0-0.9-0.6c0-2.7,0.1-5.4,0.1-8.1c0.8,0.4,0.3,1.1,0.4,1.7
			C48.6,50.4,48,52.8,48.8,55.1z"/>
		<path class="st19" d="M20.5,33.4c2.9,0.1,5.9-0.4,8.8,0.4c0.1,0.1,0.1,0.2,0.1,0.3c0,0.1-0.1,0.1-0.1,0.1
			c-2.2-0.8-4.6-0.1-6.8-0.4C21.8,33.8,21,34.2,20.5,33.4z"/>
		<path class="st20" d="M16.1,113c0.1,0,0.2,0,0.4-0.1c0,2.8,0,5.7,0,8.5c-0.1,0-0.2,0-0.4,0C16.1,118.6,16.1,115.8,16.1,113z"/>
		<ellipse class="st21" cx="20.1" cy="25.1" rx="4.3" ry="0.1"/>
		<path class="st18" d="M20.1,29.8c0,1.1,0,2.2,0,3.4c-0.2-0.1-0.3-0.1-0.3-0.2c0.6-2.5-1.1-3-3-3.3c0,0,0-0.1,0-0.1
			C17.9,29.3,19,29,20.1,29.8z"/>
		<path class="st22" d="M23.8,90.5c0.8-1.1-0.1-2.6,0.8-3.8c0.6,1.5,0.5,3,0.1,4.5C23.9,91.5,23.9,91.5,23.8,90.5z"/>
		<path class="st23" d="M14.3,34.9c-0.6-1.3-0.6-2.6,0.3-3.7C14.5,32.4,14.9,33.7,14.3,34.9z"/>
		<path class="st24" d="M29.7,122.7c-1.7,0-3.3,0-5,0c0-0.1,0-0.1,0-0.2c1.7,0,3.4,0,5,0C29.8,122.6,29.8,122.6,29.7,122.7z"/>
		<path class="st25" d="M39.2,43.4c2,0,3.9,0,5.9,0C43.2,43.9,41.2,43.9,39.2,43.4z"/>
		<path class="st26" d="M31.9,34.2c-0.1,0.1,0,0.2,0,0.3c0.1,1.5,0.3,2.9-0.1,4.4c-0.4,0.1-0.8,0-1.1-0.3c0,0,0-0.2,0-0.2
			c0.9-0.5,0.4-1.3,0.5-2c0.2-0.9-0.3-1.8,0.3-2.7c0.1,0,0.2,0,0.3,0C31.9,34,31.9,34.1,31.9,34.2z"/>
		<path class="st27" d="M45.5,45.2c-1,0.5-2,0.4-2.9,0C43.5,44.6,44.5,44.6,45.5,45.2z"/>
		<path class="st28" d="M38.4,84.3c0.7-1,0.1-2.4,0.8-3.4c0.3,1.4,0.3,2.9,0,4.3C38.6,85.3,38.6,84.7,38.4,84.3z"/>
		<path class="st29" d="M36.3,50.7c1.2-0.5,2.5-0.6,3.7,0.1c-0.5,0.7-1.2,0.2-1.8,0.3C37.6,50.7,36.9,51.1,36.3,50.7L36.3,50.7z"/>
		<path class="st30" d="M24.9,86.8c0.4,0.2,0.8,0.4,1.1,0.7c-0.9,0.2-0.8,1-0.8,1.6c0,0.7,0.2,1.5-0.4,2.1
			C24.7,89.7,24.5,88.2,24.9,86.8z"/>
		<path class="st7" d="M39.2,85.2c0-1.4,0-2.9,0-4.3c0.2,0.1,0.5,0.2,0.7,0.3c-0.8,0.6-0.2,1.5-0.4,2.2
			C39.4,83.9,39.9,84.7,39.2,85.2z"/>
		<path class="st7" d="M54.3,99.7c0-1.6,0-3.3,0-4.9C54.7,96.4,55.1,98,54.3,99.7z"/>
		<path class="st24" d="M15.1,122.7c-1.2,0-2.4,0-3.6,0c0-0.1,0-0.1,0-0.2c1.2,0,2.4,0,3.6,0C15.1,122.6,15.1,122.7,15.1,122.7z"/>
		<path class="st16" d="M11.2,72.5c-0.8-0.6-1.7-1.2-2.1-2.3C10.1,70.7,11.2,71.1,11.2,72.5z"/>
		<path class="st31" d="M31.9,38.9c0-1.5,0.1-2.9,0.1-4.4c0.1,0,0.2,0,0.3,0C32.1,36,32.7,37.5,31.9,38.9z"/>
		<path class="st32" d="M24.9,86.8c0,1.5,0,2.9-0.1,4.4c-0.1,0-0.2,0-0.3,0c0-1.5,0-3-0.1-4.5C24.7,86.8,24.8,86.8,24.9,86.8z"/>
		<path class="st33" d="M25.3,71.6c0,1.2,0,2.3,0,3.5C25.1,74,24.6,72.8,25.3,71.6C25.3,71.7,25.3,71.6,25.3,71.6z"/>
		<path class="st34" d="M24.5,29.4c0,0.1,0,0.2,0,0.3c-0.1,0-0.3,0.1-0.4,0.1c0,0,0,0,0,0c0-1.1,0-2.3,0-3.4c0.1,0,0.3,0,0.4,0
			C24.5,27.4,24.5,28.4,24.5,29.4z"/>
		<path class="st7" d="M7.6,48.5c-0.6-1.3-0.6-2.7,0-4C7.6,45.8,7.6,47.2,7.6,48.5z"/>
		<path class="st7" d="M5.4,45.4c0,1.5,0,2.9,0,4.4c-0.1-0.1-0.2-0.2-0.3-0.2c-0.3-0.2-0.2-0.4,0-0.7C5.2,47.7,4.8,46.5,5.4,45.4z"
			/>
		<path class="st35" d="M20.1,29.8c-1.1-0.1-2.2-0.1-3.3-0.2c0-0.1,0-0.2,0.1-0.3c1.2-0.3,2.4-0.4,3.7,0.1c0,0.1,0,0.2-0.1,0.4
			C20.3,29.8,20.2,29.8,20.1,29.8z"/>
		<path class="st36" d="M10.5,34.5c-0.5-1.2-0.6-2.5,0-3.7c0.1,0,0.1,0,0.2,0c0.1,1.2,0.1,2.4,0,3.6L10.5,34.5z"/>
		<path class="st37" d="M33.3,53.3c-0.7,0.2-1.4,0.4-2.2,0.3C31.8,52.6,32.5,52.8,33.3,53.3z"/>
		<path class="st37" d="M9.1,41.1c0.1-0.6,0.1-1.2,0.2-1.9C10,40,10.1,40.6,9.1,41.1z"/>
		<path class="st38" d="M40,52.2c-0.7,0.1-1.4,0.5-2.2,0.3C38.3,51.4,39.2,51.8,40,52.2z"/>
		<path class="st39" d="M44,50c0,0.5,0,1.1,0.1,1.6c0,1.2-0.6,1-1.3,0.6c1.2-0.4,0.7-1.4,0.8-2.2C43.8,49.9,43.9,49.9,44,50z"/>
		<path class="st40" d="M31.5,46.3c-0.6-0.8-0.6-1.7,0-2.5C31.9,44.6,32.1,45.5,31.5,46.3z"/>
		<path class="st41" d="M47.7,46c-1.2,0.3-1-0.4-0.8-1.1C48.1,44.5,47.6,45.5,47.7,46z"/>
		<path class="st42" d="M7.3,63.6c0.5,1,0.5,1.9,0,2.9c0,0-0.1,0-0.1,0C6.7,65.6,6.7,64.5,7.3,63.6L7.3,63.6z"/>
		<path class="st43" d="M56.1,78.3c0,0.1,0,0.2,0,0.3c-0.1,0.2,0,0.8-0.3,0.5c-0.4-0.5-1.2-0.4-1.5-1C55,78.1,55.6,77.9,56.1,78.3z"
			/>
		<path class="st44" d="M66.8,85.9c0.7-1.2,1.7-0.7,2.6-0.3C68.5,85.8,67.6,85.3,66.8,85.9z"/>
		<path class="st45" d="M44,50l-0.2,0c0,0-0.2,0-0.2,0c-0.6-0.2-1.2,0.4-1.9,0l0-0.2c0.7-0.7,1.4-0.4,2.2-0.2C44,49.7,44,49.9,44,50
			z"/>
		<path class="st25" d="M40,44.5c-0.9,0-1.7,0-2.6,0C38.3,43.9,39.1,43.9,40,44.5z"/>
		<path class="st46" d="M31.5,46.3c0-0.8,0-1.6,0-2.5c0.1,0,0.2-0.1,0.3-0.1c0,0.1,0.1,0.3,0.1,0.4c0.2,0.7,0.1,1.5,0,2.2l-0.1,0
			c0,0-0.1,0-0.1,0s-0.1,0-0.1,0L31.5,46.3z"/>
		<path class="st47" d="M17.2,39.3c-0.6,0.5-1.3,0.4-2,0.3c-0.2,0-0.3-0.3,0-0.2c0.1,0,0.2-0.1,0.3-0.2C16,38.8,16.6,38.9,17.2,39.3
			z"/>
		<path class="st48" d="M75.9,120.4c-0.4-0.4-0.3-0.9-0.2-1.4C76.4,119.4,75.8,119.9,75.9,120.4z"/>
		<path class="st49" d="M17.8,37.2c0.2,0.6,0.3,1.1,0,1.7C17.5,38.3,17.4,37.8,17.8,37.2z"/>
		<path class="st50" d="M78.6,58.1c0.7,0.7,0.5,1.4-0.1,2.1C78.3,59.5,78,58.8,78.6,58.1z"/>
		<path class="st51" d="M78.6,58.1c0,0.7-0.1,1.4-0.1,2.1c-0.1,0-0.2,0-0.2,0.1c0-0.1-0.1-0.3-0.1-0.4c-0.2-0.6-0.1-1.2,0-1.8
			c0.1-0.1,0.1-0.1,0.2,0C78.4,58.1,78.5,58.1,78.6,58.1z"/>
		<path class="st52" d="M51,71.3c-0.3-0.3-0.5-0.6-0.1-0.9c0.4-0.3,0.8-0.1,1.2,0.1C51.7,70.7,50.8,70.3,51,71.3z"/>
		<path class="st29" d="M29.3,34.2c0-0.1,0-0.2,0.1-0.4c0.3,0.6,0.8,1.2-0.1,1.7C29.3,35.1,29.3,34.7,29.3,34.2z"/>
		<path class="st10" d="M69.8,90c-0.2,0-0.4,0.1-0.6,0.1c-0.3-0.1-0.7-0.1-1.2-0.2C68.7,89.6,69.2,89.6,69.8,90z"/>
		<path class="st53" d="M17.2,39.3c-0.6,0-1.2,0-1.8,0c0-0.1-0.1-0.2-0.1-0.3c0-0.1,0-0.1,0-0.2c0.6-0.1,1.2-0.2,1.8,0.1
			C17.2,39.1,17.2,39.2,17.2,39.3z"/>
		<path class="st54" d="M17.2,38.9c-0.6,0-1.2-0.1-1.8-0.1c0.6-0.4,1.2-0.2,1.8-0.3C17.2,38.7,17.2,38.8,17.2,38.9z"/>
		<path class="st55" d="M56.1,78.3c-0.6,0-1.2-0.1-1.8-0.1c0-0.1,0-0.2,0-0.3C55,78,55.7,77.7,56.1,78.3z"/>
		<path class="st56" d="M65.8,122.4c0.2,0,0.4,0,0.6,0.1c-0.2,0.1-0.4,0.3-0.6,0.3c-0.2,0-0.6,0.2-0.7-0.2
			C65.4,122.5,65.6,122.4,65.8,122.4z"/>
		<path class="st57" d="M36.3,50.7c0.7-0.1,1.3,0,1.9,0.3C37.5,51.2,36.9,51.2,36.3,50.7z"/>
		<path class="st56" d="M70.5,122.4c0.2,0,0.4,0,0.6-0.1c0.2,0.1,0.8,0.1,0.6,0.3C71.4,123,70.9,122.8,70.5,122.4z"/>
		<path class="st58" d="M28.2,106.2c0-0.3-0.1-0.6-0.1-1c0.1-0.1,0.1-0.7,0.4-0.2C28.7,105.4,28.5,105.9,28.2,106.2z"/>
		<path class="st50" d="M70.2,94c0.2,0,0.4,0.1,0.6,0.1c-0.2,0.1-0.4,0.2-0.6,0.3c-0.2,0-0.4-0.1-0.7-0.1C69.7,94,70,94.2,70.2,94z"
			/>
		<path class="st59" d="M5,48.9c0,0.2,0,0.4,0,0.7C5,49.8,4.9,50,4.9,50.2C4.5,49.7,4.7,49.3,5,48.9z"/>
		<path class="st60" d="M8.1,48.8c-0.2-0.3-0.3-0.7,0-0.8c0.3-0.1,0.2,0.3,0.2,0.5C8.3,48.6,8.2,48.7,8.1,48.8z"/>
		<path class="st6" d="M63.9,60.2c-5.3-0.2-9.9,1.5-13.8,5.1c-0.6,0.6-0.6,2-1.7,1.7c-0.7-0.2-1.2-1.2-1.8-1.8
			c-0.2-0.2-0.3-0.4-0.5-0.5c-2.7-2-2.8-2,0.2-3.8c2.5-1.5,5.1-3,7.6-4.4c0.8-0.5,1.7-0.5,2.6-0.5c3.8,0,7.7,0,11.5,0
			c0.2,0,0.5,0.1,0.6,0.2c1.7,0.9,3.3,1.8,5,2.6c0.7,0.3,0.9,0.7,0.4,1.4c-0.5,0.7-0.9,1.5-1.4,2.2c-0.2,0.4-0.4,1.1-1,0.6
			c-0.5-0.4-1.4-0.4-1.2-1.4c0.1-0.7,0.9-1.5,0.2-2c-0.8-0.7-1.9-1.3-3-1.5c-0.4,0.5-0.1,0.8,0.1,1c0.3,0.4,0.5,0.8,0.2,1.3
			c-0.4,0.6-0.8,0.6-1.4,0.4c-0.6-0.2-1.2-0.3-1.8-0.4c-0.1,0.2,0-0.4,0.1-0.1c0.1,0.2,0.4,0.1,0.2,0C64.7,60,64.3,60,63.9,60.2z"/>
		<path class="st61" d="M57.6,75c0-0.4,0.1-0.7,0.1-1.1c0-2.2,0.7-3,2.9-2.9c0.6,0,1.2,0,1.8,0.1c1.1,0.2,2.7-0.4,3.3,0.5
			c0.8,1.2,0.6,3,0.8,4.5c0.1,0.9-0.6,0.8-1.1,0.8c-1.6,0.1-3.2,0.2-4.8,0.4c-0.3,0.2-0.6,0.2-0.9,0.2C57.3,77.4,57.3,77.4,57.6,75z
			"/>
		<path class="st61" d="M67.9,83.1c0.9-4.2,0.9-4.2,5.1-3.9c0.2,0,0.5,0,0.7,0c3,0.2,3.3,1.1,1.5,3.9c-1.7,0.1-3.3,0.4-5,0.7
			C69.5,83.8,68.5,84.2,67.9,83.1z"/>
		<path class="st62" d="M71.6,76.4c-0.7,0.1-1.5,0.3-2.2,0c-0.4-0.9-0.2-1.8-0.2-2.7c0-2.5,0-2.5,2.6-2.1c3.3-0.2,4.4,0.9,4.3,4.5
			C74.6,76.8,73.1,75.8,71.6,76.4z"/>
		<path class="st63" d="M43.7,56.2c0.7,0.1,1.4,0.2,2.2,0.9c-1.9,1.1-3.7,2.2-5.5,3.3c-0.4,0.2-0.6,0.2-1,0c-1.5-1-3-1.9-4.9-3.2
			c2-0.4,3.6-0.7,5.2-1c0.1,0,0.2,0,0.3,0c1.2-0.1,2.4-0.1,3.6,0C43.5,56.1,43.6,56.1,43.7,56.2z"/>
		<path class="st61" d="M63.2,64.2c0.9,1.4,2.2,3.3,1.6,4.4c-0.7,1.2-3,0.4-4.6,0.6c-1,0.2-1.4-0.1-1-1.2c0.5-1.2,0.7-2.6,1.4-3.7
			C61.4,63.9,62.3,63.8,63.2,64.2z"/>
		<path class="st64" d="M56.5,67.1c-0.4,0.7-0.2,1.5-0.3,2.2c-1.3,0.7-2.8,0-4.2,0.4c-0.3-0.2-1.4-0.1-0.7-0.6
			c1.7-1.3,2.8-3.5,5.1-4c0.4,0.6-0.1,1.2,0.1,1.7c0.1,0.1,0.2,0.1,0.1,0.2C56.6,67.1,56.5,67.1,56.5,67.1z"/>
		<path class="st65" d="M71.6,68.5c-0.4,0.1-0.8,0.2-1.3,0.2c-0.6,0-1.5,0.5-1.8-0.3c-0.4-0.9-0.6-2-0.9-3c-0.1-0.3,0.3-0.5,0.5-0.3
			c1.1,1,2.9,0.9,3.5,2.5C71.9,67.9,71.2,68.2,71.6,68.5z"/>
		<path class="st19" d="M53.6,52.6c5.1,0,10.3,0,15.4,0c-0.7,0.5-1.5,0.3-2.3,0.3c-3.7,0-7.4,0-11.1,0C54.9,52.9,54.2,53,53.6,52.6z
			"/>
		<path class="st29" d="M54.3,55.9c0.1-0.1,0.2-0.2,0.3-0.2c4.5-0.4,9.1-0.3,13.6,0c0.1,0,0.3,0.2,0.4,0.4
			C63.8,56.3,59.1,56.5,54.3,55.9z"/>
		<path class="st66" d="M54.3,55.9c4.8,0,9.5-0.2,14.3,0.1c0,0.1,0.1,0.1,0.1,0.2c-0.1,0-0.3,0-0.4,0.1c-4.7,0.1-9.3,0.3-14-0.1
			C54.3,56.1,54.3,56,54.3,55.9z"/>
		<path class="st38" d="M54.3,56.2c4.7,0,9.3,0.1,14,0.1c-1.2,0.6-2.4,0.3-3.6,0.3c-3.6,0-7.2,0-10.8,0C54,56.4,54.2,56.3,54.3,56.2
			z"/>
		<path class="st19" d="M44.7,33.8c-4.3,0-8.6,0-12.9,0c0.6-0.5,1.4-0.4,2.1-0.4c2.9,0,5.9,0,8.8,0C43.5,33.4,44.2,33.3,44.7,33.8z"
			/>
		<path class="st67" d="M67.9,83.1c1.9,0.9,3.8-0.2,5.6-0.1c0.6,0,1.2-0.4,1.7,0.1c-0.7,0-1.2,0.8-2,0.4c-0.6,0.3-1.4,0-2,0.3
			c-0.2,0-0.4,0-0.6,0.1c-0.7,0.3-1.6,0-2.3,0.5c-0.4,0-0.8,0.1-0.8-0.5C67.6,83.6,67.8,83.3,67.9,83.1z"/>
		<path class="st61" d="M71.8,71.6c-1.9-0.3-2.7,0.5-2.4,2.5c0.1,0.8,0,1.6,0,2.4c-0.6-1.4-0.1-2.9-0.3-4.4
			c-0.1-0.6,0.3-0.7,0.8-0.7C70.5,71.5,71.1,71.6,71.8,71.6z"/>
		<path class="st68" d="M39.6,47.4c-0.1,0.1-0.2,0.3-0.3,0.4c-0.8,0.3-1.5,0.2-2.3,0c-0.2-1.2,0.9-0.9,1.5-1.2
			C38.9,46.8,39.7,46.5,39.6,47.4z"/>
		<path class="st69" d="M63.2,64.2c-0.9,0.2-1.8,0.5-2.7,0.1C61.4,63.3,62.3,63.3,63.2,64.2z"/>
		<path class="st70" d="M39.7,55.9c-0.1,0-0.1,0-0.2-0.1c-0.1-0.1-0.1-0.2-0.1-0.3c1.5,0,2.9,0,4.4,0c0,0,0.1,0.1,0.1,0.1
			c-0.1,0.1-0.2,0.1-0.3,0.2C42.3,56.4,41,56.4,39.7,55.9z"/>
		<path class="st71" d="M57.6,75c0,2.2,0,2.2,3,2.2c-1,0.5-2.2,0.7-3,0C57,76.7,57.1,75.7,57.6,75z"/>
		<path class="st72" d="M31.6,33.8c0,1.2,0,2.3-0.1,3.4c0,0.5,0.2,1.2-0.7,1.2c0.5-0.9,0.3-1.9,0.3-2.8C31.2,35,31,34.3,31.6,33.8z"
			/>
		<path class="st73" d="M45.2,38c0-1.2,0-2.3,0-3.5c0,0,0.1,0,0.1,0c0,1.2,0,2.3,0,3.5C45.3,38,45.3,38,45.2,38z"/>
		<path class="st74" d="M39.6,47.4c-0.4-0.3-0.8-0.5-1.1-0.8c0.8-0.4,1.5-0.3,2.2,0.1C40.6,47.4,40.1,47.4,39.6,47.4z"/>
		<path class="st61" d="M71.6,76.4c1.5-0.7,3-0.2,4.5-0.3c0,0.1-0.1,0.2-0.1,0.3c-0.5,0.3-0.9,0.3-1.4,0.1
			C73.6,76.5,72.6,76.5,71.6,76.4z"/>
		<path class="st29" d="M20.5,29.4c-1.2,0-2.4,0-3.7-0.1C18,28.8,19.3,28.8,20.5,29.4z"/>
		<path class="st75" d="M39.7,55.9c1.3,0,2.6,0,3.8,0c0,0.1,0.1,0.2,0.1,0.3c0,0.1,0,0.1,0,0.2c-1.3,0.1-2.7,0.1-4,0
			c0,0,0-0.2,0-0.2C39.6,56.1,39.7,56,39.7,55.9z"/>
		<path class="st52" d="M52,69.8c1.4-0.1,2.8-0.3,4.2-0.4C54.8,70.3,53.3,69.7,52,69.8z"/>
		<path class="st76" d="M71.6,68.5c-0.3-0.1-0.6-0.2-1-0.3c0.4-0.2,0.7-0.4,1-0.6c0.3,0.2,0.9,0.5,0.8,0.7
			C72.4,68.7,71.9,68.5,71.6,68.5z"/>
		<path class="st29" d="M10.7,34.5c-0.2-1.2-0.3-2.4,0-3.6C11,32.1,11,33.3,10.7,34.5z"/>
		<path class="st77" d="M37,47.8c0.8,0,1.5,0,2.3,0C38.5,49.1,37.8,47.9,37,47.8z"/>
		<path class="st78" d="M56.5,67.1c-0.1-0.1-0.1-0.2,0-0.2c0.6,0.6,0.4,1.3,0.1,2C56.6,68.3,56.5,67.7,56.5,67.1z"/>
		<path class="st79" d="M44.6,51.9c-0.3-0.4-0.3-0.9-0.2-1.4C45.1,51,44.5,51.5,44.6,51.9z"/>
		<path class="st72" d="M32,46.3c0-0.7,0-1.5,0-2.2C32.4,44.8,32.4,45.6,32,46.3z"/>
		<path class="st38" d="M63.9,60.2c0.3-0.3,0.7-0.4,1.1-0.3c0.2,0,0.5-0.1,0.5,0.2c0,0.1-0.4,0.1-0.6,0.2
			C64.5,60.3,64.2,60.3,63.9,60.2z"/>
		<path class="st44" d="M67.5,83.8c0.1,0.5,0.4,0.5,0.8,0.3c0.3-0.2,0.5-0.2,0.7,0.1C68.4,84.4,67.6,85.3,67.5,83.8z"/>
		<path class="st80" d="M44,49.6c-0.7,0-1.5-0.1-2.2,0.2C42.5,49,43.2,49.1,44,49.6z"/>
		<path class="st61" d="M69,84.2c-0.2,0-0.5-0.1-0.7-0.1c0.7-0.5,1.5-0.3,2.3-0.3C70.1,84,69.6,84.1,69,84.2z"/>
		<path class="st81" d="M74.6,76.5c0.5,0,0.9,0,1.4-0.1C75.5,77.1,75,76.8,74.6,76.5z"/>
		<path class="st61" d="M71.2,83.8c0.6-0.5,1.4-0.3,2-0.3C72.6,83.9,71.9,83.8,71.2,83.8z"/>
		<path class="st80" d="M78.1,58.1c0.2,0.6,0.2,1.2,0,1.8C77.7,59.3,77.8,58.7,78.1,58.1z"/>
		<path class="st82" d="M47.7,116.9c-0.5,2.1-2,2.9-3.9,3.1c-4.1,0.6-4.1-3.5-4.1-3.5s-0.9-4.5,0.8-4.9c3.6-0.8,6.3,0.3,7.1,2.7
			C47.4,115.2,47.4,116.1,47.7,116.9z"/>
		<path class="st83" d="M40.3,103.3c1,0,1.9-0.1,2.9-0.1c1.4,0,2.7,0.5,3,2.1c0.3,1.6,0.1,3.2-1.9,3.8c-1.4-0.1-2.9,0.5-4.2-0.4
			C40,106.9,39.7,105.1,40.3,103.3z"/>
		<path class="st20" d="M40.3,103.3c0,1.8,0,3.7,0,5.5c0.2,0.2,0.2,0.5,0,0.7c-0.2,0-0.6,0-0.6-0.3c0-1.9,0-3.8,0-5.7
			C39.8,103.3,40.1,103.3,40.3,103.3z"/>
		<path class="st84" d="M40.3,109.5c0-0.2,0-0.5,0-0.7c1.3,0.1,2.7-0.3,4,0.3C43.1,109.8,41.7,109.6,40.3,109.5z"/>
		<path class="st56" d="M47.7,116.9c-0.5-0.9-0.5-1.7,0-2.6C48,115.2,48,116.1,47.7,116.9z"/>
		<path class="st85" d="M15.1,107.7c0-4.2,0.7-4.6,4.4-4.5c2.2,0.1,3.3,0.9,3.6,2.6c0.4,2.4-0.5,3.7-2.7,4.7
			c-1.3,0.6-3.1,0.9-4.2,0.1C15.2,110.1,15,109.2,15.1,107.7z"/>
		<path class="st29" d="M6.9,66.5c0,0.1,0,0.1-0.1,0.2c-0.1,0-0.2,0-0.3,0.1c0-1.1,0-2.2,0-3.2c0,0,0.1-0.1,0.1-0.1
			c0.1,0.1,0.1,0.2,0.2,0.3C7.1,64.6,7.1,65.5,6.9,66.5z"/>
		<path class="st86" d="M6.9,66.5c0-0.9,0-1.9,0-2.8c0.1,0,0.2-0.1,0.3-0.1c0,1,0,2,0,3C7.1,66.5,7,66.5,6.9,66.5z"/>
		<path class="st37" d="M39.6,56.3c1.3-0.2,2.7-0.3,4,0C42.3,56.7,41,56.7,39.6,56.3z"/>
	</g>
	<g class="st2">
		<g>
			<path class="st6" d="M94.3,129.4c-2.8,0-5.1-2.3-5.1-5.1c0-1.3,0.5-2.6,1.5-3.6c1-1,2.2-1.5,3.6-1.5c2.7,0,5.1,2.3,5.1,5.1
				c0,1.3-0.5,2.6-1.5,3.6C97,128.9,95.6,129.4,94.3,129.4L94.3,129.4C94.3,129.4,94.3,129.4,94.3,129.4z M94.3,128.4l0,0.5
				L94.3,128.4c1.1,0,2.1-0.5,2.9-1.2c0.8-0.8,1.2-1.8,1.2-2.9c0-2.2-1.9-4.1-4.1-4.1c0,0,0,0,0,0c-1.1,0-2.1,0.4-2.9,1.2
				c-0.8,0.8-1.2,1.8-1.2,2.9C90.2,126.6,92.1,128.4,94.3,128.4C94.3,128.4,94.3,128.4,94.3,128.4z"/>
		</g>
		<g>
			<path class="st6" d="M92.2,121.3c0.4-0.1,1-0.1,1.6-0.1c0.9,0,1.4,0.2,1.8,0.5c0.3,0.3,0.5,0.7,0.5,1.2c0,0.8-0.5,1.4-1.2,1.6v0
				c0.5,0.2,0.8,0.6,0.9,1.3c0.2,0.9,0.4,1.5,0.5,1.7h-0.8c-0.1-0.2-0.2-0.7-0.4-1.5c-0.2-0.9-0.5-1.2-1.3-1.2h-0.8v2.7h-0.8V121.3z
				 M93.1,124.1h0.8c0.9,0,1.4-0.5,1.4-1.2c0-0.8-0.6-1.2-1.4-1.2c-0.4,0-0.7,0-0.8,0.1V124.1z"/>
		</g>
	</g>
	<path class="st87" d="M0.4,120.7"/>
</g>
<g id="BMO" class="st1">
	<path class="st88" d="M1.8,19.3c0.6,0,1.1,0,1.7,0c92.1,0,184.3,0,276.4,0c1.5,0,1.9,0.3,1.9,1.9c-0.1,36.1,0,72.2,0,108.3
		c0,1.4-0.4,1.7-1.8,1.7c-92.2,0-184.5,0-276.7,0c-0.5,0-1,0-1.5,0c-0.7-0.8-0.4-1.8-0.4-2.7c0-33.6,0-67.2,0-100.8
		c0-2.2,0-4.3,0-6.5C1.4,20.5,1.3,19.8,1.8,19.3z"/>
	<path class="st89" d="M1.2,131c-0.6-0.3-0.3-0.9-0.3-1.4c0-36.3,0-72.7,0-109c0-0.4-0.3-1,0.3-1.4c0.4,0.5,0.3,1.2,0.3,1.8
		c0,36.1,0,72.1,0,108.2C1.5,129.9,1.7,130.5,1.2,131z"/>
	<path class="st90" d="M1.2,131c0-37.3,0-74.5,0-111.8c0.1,0,0.2,0,0.3,0c0.3,0.5,0.1,1.1,0.1,1.7c0,36.1,0,72.3,0,108.4
		c0,0.6,0.1,1.1-0.1,1.7C1.4,131,1.3,131,1.2,131z"/>
	<path class="st91" d="M1.5,131c0-37.3,0-74.5,0-111.8c0.1,0,0.2,0,0.3,0c0,37.3,0,74.5,0,111.8C1.7,131,1.6,131,1.5,131z"/>
	<path class="st92" d="M165.9,71.5c0.2-5.5,1.6-10.7,4-15.6c6.3-13.2,16.6-21.7,30.8-25.4c0.4-0.1,0.9-0.1,1.3-0.2
		c2-0.5,4-0.3,6-0.9c0.5,0,1,0,1.4,0c1.4-0.2,2.8-0.2,4.2,0c0.5,0,1,0,1.4,0c1.4,0.6,3,0.2,4.4,0.7c0.5,0.2,1.1,0.4,1.7,0.2
		c5.8,1,11.1,3.3,15.8,6.6c12.2,8.4,19,20,20.2,34.8c0.3,3.8,0.2,7.5-0.7,11.2c-0.4-0.3-0.2-0.7-0.2-1.1c0,0.4-0.2,0.9,0.1,1.3
		c-0.5,4.6-2.1,9-4.3,13c-7.4,13.7-18.8,21.9-34.1,24.3c-21.5,3.5-43.4-10-50.1-30.7c-0.5-1.6-1.2-3.3-1.3-5
		c0.3-0.3,0.2-0.7,0.2-1.1c-0.1,0.4,0.1,0.8-0.2,1.1c-0.6-2-0.9-4.1-0.9-6.2c0.5-1,0-2,0-3C165.8,74.2,166.4,72.8,165.9,71.5z"/>
	<path class="st93" d="M69.4,92.1c0.9,1,2.1,1.1,3.4,1c1.2-0.1,1.5,0.6,1.5,1.4c0.1,1.1-0.9,0.7-1.5,0.8c-2.2,0.1-4.3-0.6-6.5-0.3
		c-1.1,0.1-2.1,0.2-3.2,0.3c-0.9,0.1-1-0.3-1-1.1c0-0.7,0.1-1.1,1-1.1c1.2,0,2.6,0.1,3.3-1.3c-0.2-0.4-0.1-0.8-0.1-1.2
		c0-7.7,0-15.5,0-23.2c0-0.4,0-0.7,0.1-1.1c-0.8-1-1.9-1.1-3-1c-1.2,0.1-1.4-0.7-1.4-1.5c-0.1-1.1,0.8-0.7,1.4-0.7
		c3.3,0,6.6,0.1,9.8,0c1.2,0,1.7,0.3,2.2,1.3c3.1,6.6,6.2,13.1,9.3,19.7c0.1,0.3,0.4,0.6,0.6,1c0.9-0.9,1.2-2,1.7-3
		c2.9-6,5.8-12,8.7-18c0.8-1.8,2.3-1,3.5-0.9c1.6,0.2,3.2,0.3,4.8,0c1.3-0.2,2.6-0.2,4-0.2c0.8,0,0.6,0.6,0.7,1.1
		c0,0.7-0.2,1.1-0.9,1.1c-0.9,0.1-1.8-0.1-2.7,0.4c-0.4,0.3-1,0.4-1,1c0.2,0.3,0.1,0.6,0.1,0.9c0,7.8,0,15.6,0,23.4
		c0,0.3,0,0.6-0.1,0.9c0.7,1.4,2,1.3,3.3,1.3c0.7,0,1.4-0.1,1.4,1c0,0.8-0.2,1.2-1.1,1.2c-5.1,0-10.3,0-15.4,0c-0.8,0-1-0.4-1-1.1
		c0-0.8,0.3-1.1,1.1-1.1c1,0,1.9,0.1,2.8-0.4c0.4-0.2,0.7-0.4,0.7-0.9c-0.1-6.5,0-13,0-19.6c0-0.6,0.2-1.2-0.3-1.7
		c-3.8,8-7.7,15.9-11.5,23.9c-0.3,0.6-0.5,1.4-1.4,1.4c-1,0-1.2-0.8-1.5-1.5c-3.5-7.4-7-14.8-10.4-22.2c-0.2-0.4-0.4-0.8-0.6-1.2
		c-0.6,0.4-0.3,1-0.3,1.5C69.4,78.9,69.5,85.5,69.4,92.1z"/>
	<path class="st93" d="M31.3,66.2c-0.6-1.2-1.8-1.1-2.8-1c-1,0-1.6-0.1-1.5-1.3c0.1-1.2,0.8-1,1.5-1c6.3,0,12.7,0,19,0
		c2.4,0,4.8,0.2,6.9,1.4c1.9,1,2.8,2.7,3,4.9c0.3,4.3-1.9,6.6-5.5,8c-0.1,0.2-0.3,0.3-0.5,0.3c-0.3,0-0.5,0-0.8,0c0,0,0.1,0,0.1,0
		c0.2,0,0.3,0,0.5,0c0.3,0,0.6,0.1,0.7,0.3c1.4,0.4,2.8,0.8,4,1.7c2,1.4,3,3.4,3.3,5.8c0.3,0.4,0.3,0.9,0,1.3
		c-0.5,5.2-4.1,7.7-9.2,8.2c-7.2,0.7-14.5,0.1-21.7,0.3c-0.7,0-1.3,0-1.3-1c0-1,0.5-1.2,1.3-1.2c1.1,0,2.1-0.1,2.9-1
		C31.4,83.4,31.3,74.8,31.3,66.2z"/>
	<path class="st93" d="M110.2,79c-0.1-4.7,1.1-8.9,4.7-12.2c2.5-2.3,5.4-3.3,8.7-3.9c2.4-0.4,4.9-0.5,7.3-0.3
		c5.8,0.5,10.9,2.3,13.8,7.8c2.1,3.9,2.3,8,1.6,12.3c-0.5,3.4-1.9,6.4-4.4,8.8c-2.6,2.4-5.9,3.4-9.3,4c-2.9,0.5-5.7,0.2-8.6,0
		c-6.2-0.3-12.2-5.6-13.3-11.8C110.3,82.1,110.2,80.5,110.2,79z"/>
	<path class="st94" d="M261.9,43.2c3.2,0,5.7,2.5,5.7,5.7c0,3.1-2.6,5.7-5.8,5.7c-3.8-0.1-5.7-3.1-5.6-5.7
		C256.4,45.5,258.6,43.2,261.9,43.2z"/>
	<path class="st95" d="M31.3,66.2c0.1,0.3,0.2,0.7,0.2,1c0,7.9,0,15.7,0,23.6c0,0.4,0.1,0.8-0.2,1.2c-0.4-0.4-0.2-1-0.2-1.5
		c0-7.6,0-15.3,0-22.9C31,67.2,30.9,66.6,31.3,66.2z"/>
	<path class="st96" d="M69.4,92.1c-0.4-0.3-0.3-0.7-0.3-1.1c0-7,0-13.9,0-21.1c0.4,0.3,0.6,0.6,0.6,1c0,6.5,0,13,0,19.5
		C69.7,90.9,70,91.6,69.4,92.1z"/>
	<path class="st97" d="M95.2,70.5c0.1-0.2,0.1-0.5,0.2-0.7c0.3-0.1,0.4,0,0.4,0.2c0,7,0,13.9,0,20.9c0,0.3-0.1,0.6-0.2,0.9
		c-0.6-0.5-0.3-1.1-0.3-1.7C95.2,83.5,95.2,77,95.2,70.5z"/>
	<path class="st98" d="M66.3,66.3c0,0.8,0.1,1.5,0.1,2.3c0,7.2,0,14.4,0,21.5c0,0.6-0.1,1.1-0.1,1.7c-0.4-0.3-0.3-0.7-0.3-1.1
		c0-7.8,0-15.5,0-23.3C66.1,66.9,66,66.5,66.3,66.3z"/>
	<path class="st99" d="M103.9,91.7c0-2.6-0.1-5.3-0.1-7.9c0-5.8,0.1-11.5,0.1-17.3c0.4,0.4,0.3,0.8,0.3,1.3c0,7.5,0,15.1,0,22.6
		C104.2,90.9,104.3,91.4,103.9,91.7z"/>
	<path class="st100" d="M165.9,71.5c0.5,2.4,0.5,4.7,0,7.1C165.6,76.2,165.6,73.8,165.9,71.5z"/>
	<path class="st101" d="M219.7,30.3c-1-0.4-2-0.3-3.1-0.3c-0.6,0-1.2,0.1-1.5-0.6c2,0,4,0.3,5.9,0.9
		C220.6,30.6,220.2,30.5,219.7,30.3z"/>
	<path class="st101" d="M208,29.4c-0.2,0.3-0.4,0.6-0.8,0.6c-1.7-0.2-3.4,0.4-5.2,0.3C204,29.6,206,29.4,208,29.4z"/>
	<path class="st98" d="M131.2,62.2c-1.8,0-3.6,0-5.4,0c0,0,0-0.1,0-0.1c1.8,0,3.6,0,5.4,0C131.2,62.1,131.2,62.1,131.2,62.2z"/>
	<path class="st101" d="M213.7,29.3c-1.4,0-2.8,0-4.2,0C210.9,29,212.3,29,213.7,29.3z"/>
	<path class="st102" d="M59.3,86.7c0-0.4,0-0.9,0-1.3c0-0.3,0.1-0.7,0.1-1c0.1,0,0.1,0,0.2,0c0,1.1,0,2.2,0,3.4
		C59.2,87.4,59.4,87,59.3,86.7z"/>
	<path class="st103" d="M256.6,83.1c-0.6-0.4-0.2-1-0.1-1.5c0.1,0.4,0.1,0.9,0.2,1.3C256.7,83,256.7,83.1,256.6,83.1z"/>
	<path class="st104" d="M51.9,78c-0.3,0-0.6-0.1-0.9-0.1c-0.2-0.3,0.1-0.4,0.3-0.5c0.2,0,0.4-0.1,0.6-0.1
		C51.9,77.5,51.9,77.7,51.9,78z"/>
	<path class="st105" d="M219.7,30.3c0.4,0,0.9,0,1.3-0.1c0.1,0,0.2,0,0.2,0C220.8,30.7,220.2,30.7,219.7,30.3z"/>
	<path class="st93" d="M222.7,49.7c1.9,1.1,2.9,3.1,4.3,4.7c2,2.3,3.7,4.7,5.6,7.1c0.5,0.6,0.7,1.2,0.7,1.9c0,10.1,0,20.3,0,30.4
		c0,1.3-0.3,1.6-1.6,1.6c-13.6,0-27.2,0-40.8,0c-1.2,0-1.6-0.3-1.5-1.5c0.1-4.5,0-9,0-13.5l0,0c0.3-0.6,0.2-1.3,0.2-2
		c0-4.7,0.1-9.4,0-14.1c0-1.3,0.4-2.3,1.2-3.3c2.7-3.3,5.3-6.5,7.9-9.9c0.5-0.6,1-1,1.5-1.5c0.4-0.3,0.8-0.3,1.2,0
		c2.4,1.7,3.7,4.3,5.5,6.5c1.2,1.4,2.2,2.9,3.3,4.3c1.2,1.4,1.7,1.5,2.9,0c2.2-2.8,4.4-5.6,6.5-8.5c0.6-0.9,1.3-1.7,2.2-2.3
		C221.9,49.4,222.3,49.4,222.7,49.7z"/>
	<path class="st106" d="M189.3,80.4c-0.1-0.2-0.3-0.4-0.3-0.7c0-5.6,0-11.2,0.3-16.8C189.3,68.7,189.3,74.6,189.3,80.4
		C189.3,80.4,189.3,80.4,189.3,80.4z"/>
	<ellipse class="st107" cx="211.6" cy="120.2" rx="7.1" ry="0.1"/>
	<path class="st108" d="M256.6,80c0-3.2,0-6.4,0-9.6c0.1,0,0.1,0,0.2,0c0,3.2,0,6.5,0,9.7C256.7,80,256.7,80,256.6,80z"/>
	<path class="st109" d="M166.7,68.1c0.2,0.6,0.2,1.2,0,2C166.5,69.3,166.5,68.7,166.7,68.1z"/>
	<path class="st110" d="M166.6,81.9c0-0.6,0-1.2,0-1.7c0,0,0.1,0,0.1,0c0,0.6,0,1.1,0,1.7C166.7,81.8,166.7,81.9,166.6,81.9z"/>
	<path class="st111" d="M222.7,49.7c-0.4,0-0.8,0-1.1,0C221.9,49.3,222.3,49,222.7,49.7z"/>
	<path class="st112" d="M201.2,49.7c-0.4,0-0.8,0-1.2,0C200.4,49.3,200.8,49,201.2,49.7z"/>
	<path class="st113" d="M166.8,84.7c0-0.4,0.1-0.9,0.1-1.4C167.3,83.9,167.2,84.4,166.8,84.7C166.8,84.7,166.8,84.7,166.8,84.7z"/>
	<path class="st114" d="M39.6,92.9c-0.4-0.2-0.2-0.6-0.2-1c0-3.8,0-7.7,0-11.5c0-0.5-0.3-1.2,0.5-1.2c2.2,0,4.5-0.3,6.7,0.2
		c3.7,0.8,4.3,4.7,4,7.5c-0.1,0.8-0.3,1.6-0.5,2.4C49.3,91.8,47,93,43.6,93C42.3,92.7,41,92.8,39.6,92.9z"/>
	<path class="st114" d="M39.6,76.7c-0.5-0.9-0.2-1.9-0.2-2.8c-0.1-2.3,0.1-4.7-0.1-7c-0.1-1.4,0.4-1.7,1.7-1.6
		c1.6,0.1,3.2-0.2,4.7,0.2c3.3,0.8,3.9,4.6,3.5,7c-0.7,3.6-3.2,4.7-6.2,4.5C41.9,76.9,40.7,77.2,39.6,76.7c1.5-0.3,3-0.1,4.5-0.2
		C42.6,76.7,41.1,76.3,39.6,76.7z"/>
	<path class="st115" d="M39.6,92.9c1.3-0.4,2.7-0.5,4,0C42.3,93.1,41,93.1,39.6,92.9z"/>
	<path class="st116" d="M50.4,77.9c-0.4,0-0.9,0.2-1-0.2c-0.1-0.5,0.4-0.3,0.7-0.4C50.3,77.5,50.6,77.6,50.4,77.9z"/>
	<path class="st117" d="M50.4,77.9c-0.1-0.2-0.2-0.4-0.3-0.6c0.4,0,0.8,0,1.2,0c-0.1,0.2-0.2,0.4-0.3,0.5
		C50.8,77.9,50.6,77.9,50.4,77.9z"/>
	<path class="st114" d="M137.6,81.6c-0.1,3.3-0.5,6.6-2.7,9.3c-2.2,2.8-5.4,3.1-8.6,2.6c-2.9-0.5-4.9-2.2-6-5.1
		c-0.7-1.9-1.1-3.8-1.2-5.9c0.4-0.9,0-1.9,0-2.8c0-1.3,0.3-2.6,0-3.9c-0.5-4.5,2.1-9.6,6.2-10.7c4.8-1.3,9.2-0.3,11.2,5.2
		c0.7,1.9,0.9,3.8,1.1,5.8C137.4,77.9,137.4,79.8,137.6,81.6z"/>
	<path class="st99" d="M119.2,75.8c0.6,2.2,0.6,4.5,0,6.7C119,80.3,119,78,119.2,75.8z"/>
	<path class="st118" d="M137.6,81.6c-0.5-1.8-0.5-3.7,0-5.5C137.6,77.9,137.6,79.8,137.6,81.6z"/>
	<path class="st119" d="M265.7,51.1c0,1-0.6,1.5-1.5,1.6c-0.8-0.4-1.6-0.9-2-1.8c-0.2-0.4-0.4-1-0.9-0.8c-0.5,0.1-0.3,0.7-0.4,1
		c-0.3,1.3-0.6,1.4-1.6,0.6c-0.2-2-0.3-4,0.1-6c1.5-1.4,3.1-1,4.7-0.2c1,1.1,1.1,1.9,0.5,3.3C263.9,50.2,264.2,50.8,265.7,51.1z"/>
	<path class="st120" d="M259.8,52.1c1.2,0.1,0.9-0.8,0.9-1.4c0-0.4-0.2-1,0.4-1.2c0.6-0.2,0.9,0.3,1.2,0.7c0.6,0.8,0.8,2,2.1,2
		c-0.1,0.2-0.1,0.4-0.2,0.5c-1.9,0.8-3.6,1-5.2-0.6c0.1,0,0.1-0.1,0.2-0.1C259.4,51.9,259.6,51.9,259.8,52.1z"/>
	<path class="st121" d="M265.7,51.1c-0.4,0.1-0.6,1.2-1.1,0.4c-0.4-0.7-1.9-1.3-0.9-2.3c1-1,1-2,0.4-3.1c-0.1-0.5,0.2-0.6,0.6-0.4
		C266.5,47.2,266.6,49.1,265.7,51.1z"/>
	<path class="st122" d="M259,52.1c-1.9-1.9-1.9-4.6,0-6.5c0.4,0.2,0.4,0.5,0.4,0.9c0,1.6,0,3.2,0,4.7
		C259.5,51.6,259.4,51.9,259,52.1L259,52.1z"/>
	<path class="st123" d="M264.8,45.7c-0.3,0-0.5,0.1-0.6,0.4c-1.5-0.7-3-0.9-4.5-0.3c-0.2,0-0.3-0.2-0.3-0.4
		C261.1,44.1,263.1,44.2,264.8,45.7z"/>
	<path class="st124" d="M259.4,45.4c0.1,0.1,0.2,0.2,0.3,0.4c0,2.1,0,4.2,0.1,6.3c-0.2,0-0.4,0-0.7,0c0.4-2.1,0.5-4.3-0.1-6.4
		C259.2,45.6,259.3,45.5,259.4,45.4z"/>
	<path class="st92" d="M190.9,80.4c2.7-3.4,5.4-6.8,8-10.2c1.4-1.8,2.1-1.9,3.5-0.1c2.4,3,4.6,6,7,9.1c0.3,0.4,0.8,0.8,1.2,1.2
		c0,0.7-0.6,0.5-0.9,0.5c-6,0-12,0-17.9,0C191.3,80.8,190.9,81,190.9,80.4z"/>
	<path class="st92" d="M224.3,70.6c0.7,0.9,1.4,1.9,2.2,2.8c0.3,0.4,0.5,0.9,0.9,1.2c1.5,2,3.1,3.9,4.6,5.9c0,0.6-0.5,0.4-0.8,0.4
		c-5.9,0-11.7,0-17.6,0c-0.4,0-1.4,0.3-0.7-0.8c2.6-3.4,5.1-6.7,7.7-10.1C222.1,68.4,222.5,68.5,224.3,70.6z"/>
	<path class="st125" d="M212.9,80c-0.1,0.3-0.2,0.6,0.3,0.6c6.2,0,12.3,0,18.5-0.1c0.1,0,0.2-0.1,0.2-0.2c0.3,0.2,0.3,0.4,0,0.5
		c-0.3,0.1-0.7,0-1.1,0c-13,0-25.9,0-38.9,0c-0.3,0-1.2,0.6-1.1-0.5c0.3,0.3,0.8,0.2,1.2,0.2c5.8,0,11.5,0,17.3,0
		c0.4,0,0.8,0.1,1.1-0.3C211.3,80.4,212.1,80.4,212.9,80z"/>
	<path class="st126" d="M224.3,70.6c-0.1-0.1-0.3-0.1-0.4-0.2c-0.9-1.4-2-1.5-3.3-0.5c0.2-0.9,1-1.3,1.7-1.2
		C223.3,68.8,224,69.6,224.3,70.6z"/>
	<path class="st127" d="M227.4,74.6c-0.5-0.2-1.1-0.4-0.9-1.2C227.1,73.5,227.1,74.1,227.4,74.6z"/>
	<path class="st115" d="M39.6,76.7c1.6-0.7,3.3-0.1,4.9,0C42.9,76.7,41.3,76.7,39.6,76.7C39.6,76.7,39.6,76.7,39.6,76.7z"/>
	<path class="st128" d="M261.7,48.5c-0.6,0-1.1,0-1.1-0.9c0-0.8,0.4-1,1-0.9c0.6,0.1,1.5-0.2,1.6,0.7
		C263.3,48.3,262.4,48.4,261.7,48.5z"/>
</g>
<g id="Purelife" class="st1">
	<g class="st2">
		<g>
			<path class="st129" d="M128.5,104.2c0,0-83.1-23.8-83.8-56.3C43.7,6.8,121.5,9.8,121.5,9.8S13.6-3,4.5,35.4
				C-7.1,84.3,128.5,104.2,128.5,104.2z"/>
			<path class="st129" d="M185,109.7c0,0-83.1-23.8-83.8-56.3C100.2,12.3,178.3,22,178.3,22S70.1,2.5,61,40.9
				C49.4,89.8,185,109.7,185,109.7z"/>
		</g>
	</g>
	<g class="st2">
		<path class="st130" d="M108.2,86.6l8-62.7h26.4c11.8,0,17,6.5,15.3,19.4c-1.7,12.9-8.4,19.4-20.3,19.4h-15.3l-3,23.8H108.2z
			 M137.2,53.1c5.6,0,8.8-3.3,9.6-9.8c0.8-6.4-1.8-9.6-7.8-9.6H126l-2.4,19.4H137.2z"/>
		<path class="st130" d="M189.3,41.3h11.1l-5.5,43.7c-7.6,1-13.7,1.6-18.2,1.7c-11.4,0-16.2-6.7-14.5-20l3.2-25.3l11.1-0.1
			l-3.2,25.3c-0.9,6.8,0.7,10.2,4.6,10.2c2.9-0.1,5.3-0.6,7.1-1.6L189.3,41.3z"/>
		<path class="st130" d="M234.8,50.1c-4.2-0.2-7.7-0.3-10.3-0.3c-1.5,0.1-3.5,1.2-6.2,3.5l-4.2,33.5h-11l5.8-46.4h10.2l0.2,1.9
			c1.2-1.2,3.3-1.9,6.2-1.9c2.9,0,6.4,0.4,10.3,1.3L234.8,50.1z"/>
		<path class="st130" d="M248,69.1c-0.2,5.8,2.4,8.7,8,8.7c2.6,0,7.5-0.4,14.7-1.1v8.6c-5.1,1.2-10.4,1.8-16.1,1.8
			c-13.1,0-18.7-7.7-16.8-23.1c1.9-15.5,8.1-23.3,18.3-23.3h6.6c9.8,0,14,6.1,12.7,18.3c-1.1,6.8-4.3,10.1-9.4,10.1H248z
			 M264.6,58.1c0.6-5.4-0.6-8.1-3.9-8.2h-5.3c-2.9,0.1-5,3.3-6.3,9.8h14.4C264,59.7,264.4,59.2,264.6,58.1z"/>
		<path class="st130" d="M300.4,24l-5.8,46.3c-0.5,4.2-0.7,6.2-0.6,6.2h27l-1.3,10.1h-27c-7.8,0-11-5.5-9.6-16.4L289,24H300.4z"/>
		<path class="st130" d="M343.1,40.4l-5.8,46.3h-11.1l5.8-46.3H343.1z M345.4,22.4l-1.2,10.1h-11.1l1.2-10.1H345.4z"/>
		<path class="st130" d="M361.6,88.2c-1.4,7.7-7.7,11.5-19,11.5l1.1-8.9c4.2,0,6.5-1.4,6.8-4.1l4.7-37.2h-5.4l1.1-9h5.4l0.5-3.6
			c1.2-9.6,7.2-14.4,18.1-14.4l8.6,1.2l-1.1,8.4l-8.6-0.3c-3.4,0-5.3,1.7-5.8,5.2l-0.5,3.5h11.1l-1.1,9h-11.1L361.6,88.2z"/>
		<path class="st130" d="M389.5,69.1c-0.2,5.8,2.4,8.7,8,8.7c2.6,0,7.5-0.4,14.7-1.1v8.6c-5.1,1.2-10.4,1.8-16.1,1.8
			c-13.1,0-18.7-7.7-16.8-23.1c1.9-15.5,8.1-23.3,18.3-23.3h6.6c9.8,0,14,6.1,12.7,18.3c-1.1,6.8-4.3,10.1-9.4,10.1H389.5z
			 M406,58.1c0.6-5.4-0.6-8.1-3.9-8.2h-5.3c-2.9,0.1-5,3.3-6.3,9.8h14.4C405.5,59.7,405.8,59.2,406,58.1z"/>
	</g>
	<g class="st2">
		<path class="st131" d="M196.5,117.8l-1,6.9h-1.9l3.3-23h1.8l-0.1,1.5c2.3-1,4-1.5,4.9-1.5h1.2c4.4,0,6.3,2.5,5.6,7.5l-0.3,1.7
			c-0.7,5-3.2,7.4-7.6,7.4h-1.2C200,118.2,198.4,118,196.5,117.8z M198.3,104.9l-1.6,11.3c2,0.3,3.5,0.5,4.6,0.5h1.2
			c3.2,0,5-1.9,5.5-5.8l0.3-1.7c0.5-3.9-0.8-5.8-3.9-5.8h-1.2C202.5,103.3,200.8,103.9,198.3,104.9z"/>
		<path class="st131" d="M218.5,95l-1.1,7.7c1.8-0.7,4.1-1.1,6.7-1.1c3.8,0,5.5,1.7,5.1,5.1l-1.6,11.7h-1.9l1.6-11.6
			c0.3-2.3-0.7-3.5-3.2-3.5c-2.5,0-4.8,0.5-7,1.3l-1.9,13.8h-1.9l3.3-23.3H218.5z"/>
		<path class="st131" d="M239.7,116.8l7.4-15.2h2.1l-8.1,16.5c-2,4-5,6-9.1,6l0.2-1.6c3.2-0.2,5.4-1.6,6.6-4.2c-0.4,0-0.7-0.3-0.9-1
			c-2.2-5.3-3.8-10.5-4.7-15.8h2.2C236.3,106.7,237.8,111.8,239.7,116.8L239.7,116.8z"/>
		<path class="st131" d="M263.8,101.9l-0.2,1.4l-7-0.1c-2.7,0-4.1,0.7-4.3,2.2l-0.3,1.7c-0.1,1,0.7,1.5,2.2,1.7l4.5,0.4
			c2.9,0.4,4.2,1.6,4,3.6l-0.2,1.5c-0.4,2.7-2.4,4-6.1,4l-7.6-0.2l0.2-1.5l7.5,0.1c2.5-0.1,3.9-0.9,4.1-2.4l0.2-1.5
			c0.1-0.9-0.8-1.6-2.6-1.9l-4.5-0.4c-2.6-0.2-3.8-1.3-3.6-3.3l0.3-1.7c0.4-2.6,2.5-3.8,6.4-3.8L263.8,101.9z"/>
		<path class="st131" d="M270.6,101.6l-2.4,16.8h-1.9l2.4-16.8H270.6z M271.5,95l-0.5,3.5h-1.9l0.5-3.5H271.5z"/>
		<path class="st131" d="M287.9,109.2l-0.3,1.8c-0.7,4.9-3.3,7.4-7.7,7.4h-1.8c-4.3,0-6.1-2.5-5.4-7.4l0.3-1.8
			c0.7-5,3.2-7.5,7.5-7.5h1.8C286.7,101.7,288.6,104.2,287.9,109.2z M280.3,103.4c-3,0-4.7,1.9-5.2,5.8l-0.3,1.8
			c-0.5,3.9,0.7,5.8,3.6,5.8h1.8c3.1,0,5-1.9,5.5-5.8l0.3-1.8c0.5-3.8-0.8-5.8-3.9-5.8H280.3z"/>
		<path class="st131" d="M296.3,97.8l-0.5,3.8h6.3l-0.2,1.6h-6.3l-1.5,10.6c-0.2,1.9,0.3,2.9,1.7,2.9l4.3-0.1l-0.2,1.4l-4.2,0.4
			c-2.8,0-4-1.6-3.5-4.9l1.4-10.2h-2.4l0.2-1.6h2.4l0.5-3.8H296.3z"/>
		<path class="st131" d="M308.7,95l-1.1,7.7c1.8-0.7,4.1-1.1,6.7-1.1c3.8,0,5.5,1.7,5.1,5.1l-1.6,11.7h-1.9l1.6-11.6
			c0.3-2.3-0.7-3.5-3.2-3.5c-2.5,0-4.8,0.5-7,1.3l-1.9,13.8h-1.9l3.3-23.3H308.7z"/>
		<path class="st131" d="M324.3,111.9c-0.2,3.3,1.4,4.9,4.9,4.9c1,0,2.8-0.1,5.4-0.3l0.5,1.4c-2,0.4-4,0.6-6.2,0.6
			c-5,0-7.1-2.8-6.3-8.4c1-5.6,3.3-8.4,7-8.4h2.6c3.7,0,5.3,2.1,4.8,6.3c-0.5,2.6-1.7,3.9-3.5,3.9H324.3z M335,108
			c0.4-3.1-0.7-4.7-3.2-4.7h-2.7c-2.5,0-4.1,2.4-4.8,7h9.2C334.3,110.3,334.8,109.5,335,108z"/>
		<path class="st131" d="M351.3,103.4c-1.4-0.1-2.7-0.1-3.7-0.1c-1.3,0-2.9,0.7-4.7,2.1l-1.8,13h-1.9l2.4-16.8h1.7l-0.1,1.7
			c1.5-1.2,3.1-1.7,4.7-1.7c1.1,0,2.3,0.1,3.7,0.2L351.3,103.4z"/>
		<path class="st131" d="M368.1,102.1l-2.3,16.3H364l0.3-2.4c-2.8,1.6-5.3,2.4-7.4,2.4c-3.2,0-4.4-2.7-3.6-8.2
			c0.9-5.5,3.4-8.3,7.5-8.5l6.1,0.3L368.1,102.1z M365.9,103.7l-5.5-0.3c-2.9,0.2-4.7,2.4-5.4,6.8c-0.6,4.3,0.1,6.5,2,6.5
			c2.1,0,4.5-0.9,7.5-2.6L365.9,103.7z"/>
		<path class="st131" d="M371.6,117.8l-1,6.9h-1.9l3.3-23h1.8l-0.1,1.5c2.3-1,4-1.5,4.9-1.5h1.2c4.4,0,6.3,2.5,5.6,7.5l-0.3,1.7
			c-0.7,5-3.2,7.4-7.6,7.4h-1.2C375.1,118.2,373.5,118,371.6,117.8z M373.4,104.9l-1.6,11.3c2,0.3,3.5,0.5,4.6,0.5h1.2
			c3.2,0,5-1.9,5.5-5.8l0.3-1.7c0.5-3.9-0.8-5.8-3.9-5.8h-1.2C377.6,103.3,375.9,103.9,373.4,104.9z"/>
		<path class="st131" d="M395.7,116.8l7.4-15.2h2.1l-8.1,16.5c-2,4-5,6-9.1,6l0.2-1.6c3.2-0.2,5.4-1.6,6.6-4.2c-0.4,0-0.7-0.3-0.9-1
			c-2.2-5.3-3.8-10.5-4.7-15.8h2.2C392.3,106.7,393.8,111.8,395.7,116.8L395.7,116.8z"/>
	</g>
</g>
<image style="display:none;overflow:visible;" width="1096" height="406" xlink:href="738225.jpg"  transform="matrix(0.326 0 0 0.326 0 0)">
</image>
<g>
	<path class="st132" d="M98.4,92.3H74.7L63.4,44.2h-0.3L51.9,92.3H28.2L5.8,19.9h23.7l12,46.9h0.3L52,19.9h22.3l10.5,46.7h0.3
		l11.7-46.7h23.9L98.4,92.3z"/>
	<path class="st132" d="M129.4,19.9h22.8v12.7h0.3c3.4-9.2,11.5-14.1,21.5-14.1c1.8,0,3.7,0.1,5.5,0.6v21.6c-3-0.8-5.8-1.4-9-1.4
		c-11.6,0-17.7,8.1-17.7,17.2v35.8h-23.5V19.9z"/>
	<path class="st132" d="M187.4,19.9h22.8v9.9h0.3c4.3-7.3,11.9-12,20.6-12c9,0,17,2.9,20.8,11.7c5.7-7.7,12.7-11.7,22.3-11.7
		c22.8,0,25.2,17.4,25.2,31.2v43.2h-23.5V49.7c0-7.8-3.7-12.4-9.8-12.4c-10.1,0-11,7.8-11,19.5v35.4h-23.5V51.1
		c0-8.5-2.5-13.8-8.8-13.8c-8.4,0-12,4.9-12,19.7v35.3h-23.5V19.9z"/>
</g>
<g>
	<path class="st133" d="M8.6,114.3c0,0.4,0.2,0.7,0.4,0.9c0.2,0.2,0.6,0.3,0.9,0.3c0.5,0,1.2-0.2,1.2-0.8c0-0.6-0.8-0.7-1.2-0.8
		c-1.6-0.4-3.6-0.4-3.6-2.5c0-1.9,2-2.4,3.5-2.4c1.7,0,3.5,0.5,3.6,2.5h-2.3c0-0.3-0.1-0.5-0.3-0.7c-0.2-0.1-0.5-0.2-0.8-0.2
		c-0.4,0-1.1,0-1.1,0.6c0,0.7,1.7,0.9,2.9,1.1c1.6,0.3,2,1.4,2,2.1c0,2.1-2,2.8-3.7,2.8c-1.8,0-3.7-0.6-3.8-2.8H8.6z"/>
	<path class="st133" d="M19.6,110.7h-1.6v3.5c0,0.6,0.4,0.7,0.9,0.7c0.2,0,0.4,0,0.7,0v1.9c-0.5,0-0.9,0.1-1.4,0.1
		c-2.2,0-2.7-0.6-2.7-2.7v-3.4h-1.3v-1.6h1.3v-2.3h2.5v2.3h1.6V110.7z"/>
	<path class="st133" d="M20.9,109.1h2.5v1.4h0c0.4-1,1.2-1.5,2.3-1.5c0.2,0,0.4,0,0.6,0.1v2.3c-0.3-0.1-0.6-0.1-1-0.1
		c-1.3,0-1.9,0.9-1.9,1.8v3.8h-2.5V109.1z"/>
	<path class="st133" d="M27,111.5c0-1,0.5-1.7,1.2-2.1c0.7-0.4,1.6-0.5,2.5-0.5c1.8,0,3.6,0.4,3.6,2.6v3.4c0,0.7,0,1.4,0.3,2h-2.6
		c-0.1-0.2-0.1-0.5-0.1-0.7c-0.7,0.7-1.6,1-2.6,1c-1.5,0-2.6-0.7-2.6-2.3c0-2.5,2.7-2.3,4.5-2.7c0.4-0.1,0.7-0.2,0.7-0.7
		c0-0.6-0.7-0.8-1.2-0.8c-0.7,0-1.1,0.3-1.3,1H27z M30.3,115.5c1.2,0,1.6-0.7,1.6-2.3c-0.4,0.2-1,0.3-1.6,0.4c-0.6,0.1-1,0.4-1,1
		C29.3,115.2,29.8,115.5,30.3,115.5z"/>
	<path class="st133" d="M40.7,110.7h-1.6v3.5c0,0.6,0.4,0.7,0.9,0.7c0.2,0,0.4,0,0.7,0v1.9c-0.5,0-0.9,0.1-1.4,0.1
		c-2.2,0-2.7-0.6-2.7-2.7v-3.4h-1.3v-1.6h1.3v-2.3h2.5v2.3h1.6V110.7z"/>
	<path class="st133" d="M41.7,111.5c0-1,0.5-1.7,1.2-2.1c0.7-0.4,1.6-0.5,2.5-0.5c1.8,0,3.6,0.4,3.6,2.6v3.4c0,0.7,0,1.4,0.3,2h-2.6
		c-0.1-0.2-0.1-0.5-0.1-0.7c-0.7,0.7-1.6,1-2.6,1c-1.5,0-2.6-0.7-2.6-2.3c0-2.5,2.7-2.3,4.5-2.7c0.4-0.1,0.7-0.2,0.7-0.7
		c0-0.6-0.7-0.8-1.2-0.8c-0.7,0-1.1,0.3-1.3,1H41.7z M45,115.5c1.2,0,1.6-0.7,1.6-2.3c-0.4,0.2-1,0.3-1.6,0.4c-0.6,0.1-1,0.4-1,1
		C43.9,115.2,44.4,115.5,45,115.5z"/>
	<path class="st133" d="M55.3,109.1h2.5v1.1h0c0.5-0.8,1.3-1.3,2.2-1.3c1,0,1.8,0.3,2.3,1.3c0.6-0.8,1.4-1.3,2.4-1.3
		c2.5,0,2.7,1.9,2.7,3.3v4.6h-2.5v-4.6c0-0.8-0.4-1.3-1.1-1.3c-1.1,0-1.2,0.8-1.2,2.1v3.8h-2.5v-4.4c0-0.9-0.3-1.5-1-1.5
		c-0.9,0-1.3,0.5-1.3,2.1v3.8h-2.5V109.1z"/>
	<path class="st133" d="M69.1,111.5c0-1,0.5-1.7,1.2-2.1c0.7-0.4,1.6-0.5,2.5-0.5c1.8,0,3.6,0.4,3.6,2.6v3.4c0,0.7,0,1.4,0.3,2h-2.6
		c-0.1-0.2-0.1-0.5-0.1-0.7c-0.7,0.7-1.6,1-2.6,1c-1.5,0-2.6-0.7-2.6-2.3c0-2.5,2.7-2.3,4.5-2.7c0.4-0.1,0.7-0.2,0.7-0.7
		c0-0.6-0.7-0.8-1.2-0.8c-0.7,0-1.1,0.3-1.3,1H69.1z M72.3,115.5c1.2,0,1.6-0.7,1.6-2.3c-0.4,0.2-1,0.3-1.6,0.4c-0.6,0.1-1,0.4-1,1
		C71.3,115.2,71.8,115.5,72.3,115.5z"/>
	<path class="st133" d="M78,109.1h2.5v1.1h0c0.5-0.8,1.5-1.3,2.4-1.3c2.6,0,2.8,1.9,2.8,3v5h-2.5v-3.7c0-1.1,0.1-2.1-1.3-2.1
		c-1,0-1.4,0.8-1.4,1.7v4.2H78V109.1z"/>
	<path class="st133" d="M87.3,111.5c0-1,0.5-1.7,1.2-2.1c0.7-0.4,1.6-0.5,2.5-0.5c1.8,0,3.6,0.4,3.6,2.6v3.4c0,0.7,0,1.4,0.3,2h-2.6
		c-0.1-0.2-0.1-0.5-0.1-0.7c-0.7,0.7-1.6,1-2.6,1c-1.5,0-2.6-0.7-2.6-2.3c0-2.5,2.7-2.3,4.5-2.7c0.4-0.1,0.7-0.2,0.7-0.7
		c0-0.6-0.7-0.8-1.2-0.8c-0.7,0-1.1,0.3-1.3,1H87.3z M90.6,115.5c1.2,0,1.6-0.7,1.6-2.3c-0.4,0.2-1,0.3-1.6,0.4c-0.6,0.1-1,0.4-1,1
		C89.5,115.2,90,115.5,90.6,115.5z"/>
	<path class="st133" d="M103.8,115.9c0,1.3-0.2,3.7-3.9,3.7c-1.8,0-3.5-0.4-3.8-2.5h2.5c0.1,0.3,0.2,0.6,0.4,0.7
		c0.2,0.1,0.5,0.2,0.9,0.2c1.2,0,1.3-0.9,1.3-1.8v-0.7h0c-0.5,0.7-1.2,1.1-2.1,1.1c-2.3,0-3.4-1.7-3.4-3.9c0-2.1,1.2-3.8,3.4-3.8
		c0.9,0,1.6,0.4,2.1,1.2h0v-1h2.4V115.9z M99.8,110.8c-1.1,0-1.5,1-1.5,1.9c0,0.9,0.4,1.8,1.5,1.8c1.1,0,1.5-0.8,1.5-1.8
		C101.4,111.8,101,110.8,99.8,110.8z"/>
	<path class="st133" d="M107.6,113.6c0,1.1,0.7,1.8,1.7,1.8c0.6,0,1.2-0.3,1.4-0.9h2.4c-0.5,1.8-2.1,2.6-3.8,2.6
		c-2.5,0-4.2-1.5-4.2-4.1c0-2.4,1.9-4.1,4.2-4.1c2.8,0,4.2,2.1,4,4.7H107.6z M110.7,112.2c0-0.9-0.7-1.6-1.5-1.6
		c-0.9,0-1.5,0.6-1.6,1.6H110.7z"/>
	<path class="st133" d="M114.5,109.1h2.5v1.1h0c0.5-0.8,1.3-1.3,2.2-1.3c1,0,1.8,0.3,2.3,1.3c0.6-0.8,1.4-1.3,2.4-1.3
		c2.5,0,2.7,1.9,2.7,3.3v4.6h-2.5v-4.6c0-0.8-0.4-1.3-1.1-1.3c-1.1,0-1.2,0.8-1.2,2.1v3.8h-2.5v-4.4c0-0.9-0.3-1.5-1-1.5
		c-0.9,0-1.3,0.5-1.3,2.1v3.8h-2.5V109.1z"/>
	<path class="st133" d="M130.5,113.6c0,1.1,0.7,1.8,1.7,1.8c0.6,0,1.2-0.3,1.4-0.9h2.4c-0.5,1.8-2.1,2.6-3.8,2.6
		c-2.5,0-4.2-1.5-4.2-4.1c0-2.4,1.9-4.1,4.2-4.1c2.8,0,4.2,2.1,4,4.7H130.5z M133.6,112.2c0-0.9-0.7-1.6-1.5-1.6
		c-0.9,0-1.5,0.6-1.6,1.6H133.6z"/>
	<path class="st133" d="M137.5,109.1h2.5v1.1h0c0.5-0.8,1.5-1.3,2.4-1.3c2.6,0,2.8,1.9,2.8,3v5h-2.5v-3.7c0-1.1,0.1-2.1-1.3-2.1
		c-1,0-1.4,0.8-1.4,1.7v4.2h-2.5V109.1z"/>
	<path class="st133" d="M151.5,110.7H150v3.5c0,0.6,0.4,0.7,0.9,0.7c0.2,0,0.4,0,0.7,0v1.9c-0.5,0-0.9,0.1-1.4,0.1
		c-2.2,0-2.7-0.6-2.7-2.7v-3.4h-1.3v-1.6h1.3v-2.3h2.5v2.3h1.6V110.7z"/>
	<path class="st133" d="M163.6,116c-0.9,0.8-1.9,1.1-3.1,1.1c-1.9,0-3.6-1.3-3.6-3.3c0-1.5,1.1-2.5,2.4-3.1c-0.5-0.6-0.9-1.2-0.9-2
		c0-1.7,1.5-2.7,3-2.7c1.6,0,3,1.1,3,2.8c0,1.2-0.8,2.1-1.8,2.6l1.1,1.3c0.2-0.3,0.3-0.7,0.4-1h2.2c-0.1,1-0.5,1.9-1.2,2.6l2.2,2.6
		h-3.1L163.6,116z M160.7,112.4c-0.5,0.2-1.2,0.8-1.2,1.4c0,0.7,0.7,1.2,1.4,1.2c0.5,0,1-0.4,1.4-0.8L160.7,112.4z M162.5,108.6
		c0-0.5-0.4-0.8-0.9-0.8c-0.5,0-0.8,0.3-0.8,0.8c0,0.6,0.4,0.9,0.7,1.3C162,109.6,162.5,109.2,162.5,108.6z"/>
	<path class="st133" d="M172.9,109.1h2.5v1.4h0c0.4-1,1.2-1.5,2.3-1.5c0.2,0,0.4,0,0.6,0.1v2.3c-0.3-0.1-0.6-0.1-1-0.1
		c-1.3,0-1.9,0.9-1.9,1.8v3.8h-2.5V109.1z"/>
	<path class="st133" d="M181.1,113.6c0,1.1,0.7,1.8,1.7,1.8c0.6,0,1.2-0.3,1.4-0.9h2.4c-0.5,1.8-2.1,2.6-3.8,2.6
		c-2.5,0-4.2-1.5-4.2-4.1c0-2.4,1.9-4.1,4.2-4.1c2.8,0,4.2,2.1,4,4.7H181.1z M184.2,112.2c0-0.9-0.7-1.6-1.5-1.6
		c-0.9,0-1.5,0.6-1.6,1.6H184.2z"/>
	<path class="st133" d="M187.9,111.5c0-1,0.5-1.7,1.2-2.1c0.7-0.4,1.6-0.5,2.5-0.5c1.8,0,3.6,0.4,3.6,2.6v3.4c0,0.7,0,1.4,0.3,2H193
		c-0.1-0.2-0.1-0.5-0.1-0.7c-0.7,0.7-1.6,1-2.6,1c-1.5,0-2.6-0.7-2.6-2.3c0-2.5,2.7-2.3,4.5-2.7c0.4-0.1,0.7-0.2,0.7-0.7
		c0-0.6-0.7-0.8-1.2-0.8c-0.7,0-1.2,0.3-1.3,1H187.9z M191.2,115.5c1.2,0,1.6-0.7,1.6-2.3c-0.4,0.2-1,0.3-1.6,0.4
		c-0.6,0.1-1,0.4-1,1C190.2,115.2,190.7,115.5,191.2,115.5z"/>
	<path class="st133" d="M197,106.2h2.5v10.7H197V106.2z"/>
	<path class="st133" d="M208.2,113.6c0,1.1,0.7,1.8,1.7,1.8c0.6,0,1.2-0.3,1.4-0.9h2.4c-0.5,1.8-2.1,2.6-3.8,2.6
		c-2.5,0-4.2-1.5-4.2-4.1c0-2.4,1.9-4.1,4.2-4.1c2.8,0,4.2,2.1,4,4.7H208.2z M211.3,112.2c0-0.9-0.7-1.6-1.5-1.6
		c-0.9,0-1.5,0.6-1.6,1.6H211.3z"/>
	<path class="st133" d="M217.1,114.3c0,0.4,0.2,0.7,0.4,0.9c0.2,0.2,0.6,0.3,0.9,0.3c0.5,0,1.2-0.2,1.2-0.8c0-0.6-0.8-0.7-1.2-0.8
		c-1.6-0.4-3.6-0.4-3.6-2.5c0-1.9,2-2.4,3.5-2.4c1.7,0,3.5,0.5,3.6,2.5h-2.3c0-0.3-0.1-0.5-0.3-0.7c-0.2-0.1-0.5-0.2-0.8-0.2
		c-0.4,0-1.1,0-1.1,0.6c0,0.7,1.7,0.9,2.9,1.1c1.6,0.3,2,1.4,2,2.1c0,2.1-2,2.8-3.7,2.8c-1.8,0-3.7-0.6-3.8-2.8H217.1z"/>
	<path class="st133" d="M228.1,110.7h-1.6v3.5c0,0.6,0.4,0.7,0.9,0.7c0.2,0,0.4,0,0.7,0v1.9c-0.5,0-0.9,0.1-1.4,0.1
		c-2.2,0-2.7-0.6-2.7-2.7v-3.4h-1.3v-1.6h1.3v-2.3h2.5v2.3h1.6V110.7z"/>
	<path class="st133" d="M229.1,111.5c0-1,0.5-1.7,1.2-2.1c0.7-0.4,1.6-0.5,2.5-0.5c1.8,0,3.6,0.4,3.6,2.6v3.4c0,0.7,0,1.4,0.3,2
		h-2.6c-0.1-0.2-0.1-0.5-0.1-0.7c-0.7,0.7-1.6,1-2.6,1c-1.5,0-2.6-0.7-2.6-2.3c0-2.5,2.7-2.3,4.5-2.7c0.4-0.1,0.7-0.2,0.7-0.7
		c0-0.6-0.7-0.8-1.2-0.8c-0.7,0-1.2,0.3-1.3,1H229.1z M232.4,115.5c1.2,0,1.6-0.7,1.6-2.3c-0.4,0.2-1,0.3-1.6,0.4
		c-0.6,0.1-1,0.4-1,1C231.4,115.2,231.9,115.5,232.4,115.5z"/>
	<path class="st133" d="M242.8,110.7h-1.6v3.5c0,0.6,0.4,0.7,0.9,0.7c0.2,0,0.4,0,0.7,0v1.9c-0.5,0-0.9,0.1-1.4,0.1
		c-2.2,0-2.7-0.6-2.7-2.7v-3.4h-1.3v-1.6h1.3v-2.3h2.5v2.3h1.6V110.7z"/>
	<path class="st133" d="M246.1,113.6c0,1.1,0.7,1.8,1.7,1.8c0.6,0,1.2-0.3,1.4-0.9h2.4c-0.5,1.8-2.1,2.6-3.8,2.6
		c-2.5,0-4.2-1.5-4.2-4.1c0-2.4,1.9-4.1,4.2-4.1c2.8,0,4.2,2.1,4,4.7H246.1z M249.2,112.2c0-0.9-0.7-1.6-1.5-1.6
		c-0.9,0-1.5,0.6-1.6,1.6H249.2z"/>
	<path class="st133" d="M259.7,114.3c0,0.4,0.2,0.7,0.4,0.9c0.2,0.2,0.6,0.3,0.9,0.3c0.5,0,1.2-0.2,1.2-0.8c0-0.6-0.8-0.7-1.2-0.8
		c-1.6-0.4-3.6-0.4-3.6-2.5c0-1.9,2-2.4,3.5-2.4c1.7,0,3.5,0.5,3.6,2.5h-2.3c0-0.3-0.1-0.5-0.3-0.7c-0.2-0.1-0.5-0.2-0.8-0.2
		c-0.4,0-1.1,0-1.1,0.6c0,0.7,1.7,0.9,2.9,1.1c1.6,0.3,2,1.4,2,2.1c0,2.1-2,2.8-3.7,2.8c-1.8,0-3.7-0.6-3.8-2.8H259.7z"/>
	<path class="st133" d="M268.2,113.6c0,1.1,0.7,1.8,1.7,1.8c0.6,0,1.2-0.3,1.4-0.9h2.4c-0.5,1.8-2.1,2.6-3.8,2.6
		c-2.5,0-4.2-1.5-4.2-4.1c0-2.4,1.9-4.1,4.2-4.1c2.8,0,4.2,2.1,4,4.7H268.2z M271.3,112.2c0-0.9-0.7-1.6-1.5-1.6
		c-0.9,0-1.5,0.6-1.6,1.6H271.3z"/>
	<path class="st133" d="M275.2,109.1h2.5v1.4h0c0.4-1,1.2-1.5,2.3-1.5c0.2,0,0.4,0,0.6,0.1v2.3c-0.3-0.1-0.6-0.1-1-0.1
		c-1.3,0-1.9,0.9-1.9,1.8v3.8h-2.5V109.1z"/>
	<path class="st133" d="M286.1,116.8h-2.9l-2.6-7.7h2.6l1.4,5.1h0l1.4-5.1h2.6L286.1,116.8z"/>
	<path class="st133" d="M292.1,108.1h-2.5v-1.9h2.5V108.1z M289.6,109.1h2.5v7.7h-2.5V109.1z"/>
	<path class="st133" d="M299,111.9c0-0.7-0.6-1.1-1.2-1.1c-1.4,0-1.6,1.2-1.6,2.3c0,1,0.4,2,1.5,2c0.9,0,1.3-0.5,1.4-1.3h2.5
		c-0.2,2.1-1.8,3.3-3.9,3.3c-2.3,0-4.1-1.6-4.1-4c0-2.5,1.6-4.2,4.1-4.2c1.9,0,3.6,1,3.8,3.1H299z"/>
	<path class="st133" d="M304.9,113.6c0,1.1,0.7,1.8,1.7,1.8c0.6,0,1.2-0.3,1.4-0.9h2.4c-0.5,1.8-2.1,2.6-3.8,2.6
		c-2.5,0-4.2-1.5-4.2-4.1c0-2.4,1.9-4.1,4.2-4.1c2.8,0,4.2,2.1,4,4.7H304.9z M308.1,112.2c0-0.9-0.7-1.6-1.5-1.6
		c-0.9,0-1.5,0.6-1.6,1.6H308.1z"/>
	<path class="st133" d="M313.9,114.3c0,0.4,0.2,0.7,0.4,0.9c0.2,0.2,0.6,0.3,0.9,0.3c0.5,0,1.2-0.2,1.2-0.8c0-0.6-0.8-0.7-1.2-0.8
		c-1.6-0.4-3.6-0.4-3.6-2.5c0-1.9,2-2.4,3.5-2.4c1.7,0,3.5,0.5,3.6,2.5h-2.3c0-0.3-0.1-0.5-0.3-0.7c-0.2-0.1-0.5-0.2-0.8-0.2
		c-0.4,0-1.1,0-1.1,0.6c0,0.7,1.7,0.9,2.9,1.1c1.6,0.3,2,1.4,2,2.1c0,2.1-2,2.8-3.7,2.8c-1.8,0-3.7-0.6-3.8-2.8H313.9z"/>
	<path class="st133" d="M325,106.2h2.5v10.7H325V106.2z"/>
	<path class="st133" d="M334,110.7h-1.6v3.5c0,0.6,0.4,0.7,0.9,0.7c0.2,0,0.4,0,0.7,0v1.9c-0.5,0-0.9,0.1-1.4,0.1
		c-2.2,0-2.7-0.6-2.7-2.7v-3.4h-1.3v-1.6h1.3v-2.3h2.5v2.3h1.6V110.7z"/>
	<path class="st133" d="M342.8,116.8h-2.4V116h0c-0.5,0.7-1.2,1.1-2.1,1.1c-2.4,0-3.5-2.1-3.5-4.3c0-2,1.1-3.9,3.3-3.9
		c1,0,1.7,0.4,2.2,1.1h0v-3.7h2.5V116.8z M337.3,112.9c0,1.1,0.4,2.2,1.6,2.2c1.2,0,1.5-1.2,1.5-2.2c0-1.1-0.4-2.1-1.5-2.1
		C337.7,110.8,337.3,111.9,337.3,112.9z"/>
	<path class="st133" d="M344.6,114.1h2.8v2.8h-2.8V114.1z"/>
</g>
<rect x="311.6" y="66.2" class="st134" width="26.1" height="26.1"/>
</svg>
